/* XPM */
static char *result[] = {
/* columns rows colors chars-per-pixel */
"64 64 69 1 ",
"  c #020202",
". c #080706",
"X c #090807",
"o c #0A0908",
"O c #161300",
"+ c #1A1602",
"@ c #1E1A00",
"# c #1E1B0B",
"$ c #221F0F",
"% c #2B2401",
"& c #262210",
"* c #3A3315",
"= c #957D03",
"- c #987F00",
"; c #9E8400",
": c #A08500",
"> c #A58A01",
", c #AA8E03",
"< c #A48B0B",
"1 c #A98F0A",
"2 c #AD9102",
"3 c #AF950C",
"4 c #B09300",
"5 c #BB9B02",
"6 c #B0950C",
"7 c #AF9616",
"8 c #BFA004",
"9 c #C09F00",
"0 c #C1A104",
"q c #C9A700",
"w c #CEAB00",
"e c #D1AE00",
"r c #D5B100",
"t c #DBB600",
"y c #DEBA00",
"u c #D4B10A",
"i c #DBB70B",
"p c #DCB90C",
"a c #DFBC15",
"s c #E1BB00",
"d c #E7C100",
"f c #EBC400",
"g c #EFC800",
"h c #F3CB00",
"j c #F2CC0B",
"k c #FED400",
"l c #FED60B",
"z c #FFD80A",
"x c #FCD515",
"c c #FED816",
"v c #C7B34D",
"b c #DFC74C",
"n c #DDC755",
"m c #DEC855",
"M c #E4CB4B",
"N c #EDD24C",
"B c #F2D54B",
"V c #F9DC4C",
"C c #E3CB57",
"Z c #F1D655",
"A c #F6DB56",
"S c #F8DD55",
"D c #F9DF5F",
"F c #FFE14B",
"G c #FDE056",
"H c #FAE05F",
"J c #F8DF61",
"K c #FDE261",
"L c None",
/* pixels */
"LLLLLLLLLLLLLLLLLLLLLLLLLLLLLLLLLLLLLLLLLLLLLLLLLLLLLLLLLLLLLLLL",
"LLLLLLLLLLLLLLLLLLLLLLLLLLLLLLLLLLLLLLLLLLLLLLLLLLLLLLLLLLLLLLLL",
"LLLLLLLLLLLLLLLLLLLLLLLLLLLLLLLLLLLLLLLLLLLLLLLLLLLLLLLLLLLLLLLL",
"LLLLLLLLLLLLLLLLLLLLLLLLLLLLLLLLLLLLLLLLLLLLLLLLLLLLLLLLLLLLLLLL",
"LLLLLLLLLLLLLLLLLLLLLLLLLLLLLLLLLLLLLLLLLLLLLLLLLLLLLLLLLLLLLLLL",
"LLLLLLLLLLLLLLLLLLLLLLLLLLLLLLLLLLLLLLLLLLLLLLLLLLLLLLLLLLLLLLLL",
"LLLLLLLLLLLLLLLLLLLLLLLLLLLLLLLLLLLLLLLLLLLLLLLLLLLLLLLLLLLLLLLL",
"LLLLLLLLLLLLLLLLLLLLLLLLLLLLLLLLLLLLLLLLLLLLLLLLLLLLLLLLLLLLLLLL",
"LLLLLLLLLLLLLLLLLLLLLLLLLLLLLLLLLLLLLLLLLLLLLLLLLLLLLLLLLLLLLLLL",
"LLLLLLLLLLLLLLLLLLLLLLLLLLLLLLLLLLLLLLLLLLLLLLLLLLLLLLLLLLLLLLLL",
"LLLLLLLLLLLLLLLLLLLLLLLLX          X XLLLLLLLLLLLLLLLLLLLLLLLLLL",
"LLLLLLLLLLLLLLLLLLLLLLLL$#@@@@++++++O+LLLLLLLLLLLLLLLLLLLLLLLLLL",
"LLLLLLLLLLLLLLLLLLLL   #vbpsyt055555,-+   LLLLLLLLLLLLLLLLLLLLLL",
"LLLLLLLLLLLLLLLLLLLL###*CFzkkksyyytr0,%OOOLLLLLLLLLLLLLLLLLLLLLL",
"LLLLLLLLLLLLLLLLLL &vnmMxzkkkkkkkhtrrw2>>=# LLLLLLLLLLLLLLLLLLLL",
"LLLLLLLLLLLLLLLLLL &CHKGlkhhghghhgeerr000,%OLLLLLLLLLLLLLLLLLLLL",
"LLLLLLLLLLLLLLLL  LLJKKSzh4>>>>>>>;>erre55,=O LLLLLLLLLLLLLLLLLL",
"LLLLLLLLLLLLLLLL  LLKDZBjs,:::::::;>wwww0091%+LLLLLLLLLLLLLLLLLL",
"LLLLLLLLLLLLLL XLLJKKA7<>,qwwwwwwwew>;;>wu051=# LLLLLLLLLLLLLLLL",
"LLLLLLLLLLLLLLXoLLKHZM1::>uiiiiiiire>;;>qw005,%OLLLLLLLLLLLLLLLL",
"LLLLLLLLLLLL  LLDKKZ71qewuBSASSSSBirewww>>we051=O LLLLLLLLLLLLLL",
"LLLLLLLLLLLL  LLDKZM1>uiiaNZZZZZZNuwttre>>qw090>O.LLLLLLLLLLLLLL",
"LLLLLLLLLLLL  LLKZ71quBSSN7<<<<<<<:2ghtrww>>we9<O LLLLLLLLLLLLLL",
"LLLLLLLLLLLL  LLHZ<;eiSHGN<--;:>>>->dhttre:;ee0,%#LLLLLLLLLLLLLL",
"LLLLLLLLLLX LLKKKZ1:wiAGcj>=->dhgd:;:2ghtw;;wr05,=+ LLLLLLLLLLLL",
"LLLLLLLLLL  LLKKZM1>uaVVlh>=->hkkh>-->hktw,>qw090>O LLLLLLLLLLLL",
"LLLLLLLLLL  LLKZ71quBVclkh>;->hkkh>-->hktrwq>>we0>O LLLLLLLLLLLL",
"LLLLLLLLLL  LLKZ<:eiSSlkkh>=->hkkh>;->gkytrw::wr0<O LLLLLLLLLLLL",
"LLLLLLLLLL  LLKZ<:eiASlkkh>-->hkkg>=->hkkhtw::er0>O LLLLLLLLLLLL",
"LLLLLLLLLL  LLKZ<:eiSSlkkh>-->dghd>;:2hkkktw::we0,O LLLLLLLLLLLL",
"LLLLLLLLLL  LLKZ<:wiSSlkkh>-;;;>>>;>fhkkkktw::we0>O LLLLLLLLLLLL",
"LLLLLLLLLL. LLKA<:qiSSlkkh>--->>>>>2hkkkkhtw>:ee0>O LLLLLLLLLLLL",
"LLLLLLLLLL  LLKZ<;wiSGlkkg>-;>dhgghhkkkkkktw;;wr0>O LLLLLLLLLLLL",
"LLLLLLLLLL  LLKZ<;wiAGlkkg>-->hkkkkkkkkkkhtw::wr0>O LLLLLLLLLLLL",
"LLLLLLLLLL  LLKZ<;wpSGlkkh>-->hkkkkkkkkkytrw::ee9>O LLLLLLLLLLLL",
"LLLLLLLLLL  LLKZ73wuNVczkh>-->hkkkkkkkkktrew>>we8>O LLLLLLLLLLLL",
"LLLLLLLLLL. LLKHZM1>uaVVzh>=->gkkkkkkkkktw>>qw058<O LLLLLLLLLLLL",
"LLLLLLLLLLX LLKKKZ<;wiAGcj>;->hkkkkkkkkhtw:;wr85,=+ LLLLLLLLLLLL",
"LLLLLLLLLLLL oLLKZ<;wiSHGN<-;>hkkkkkkhsyre;;wr01%#LLLLLLLLLLLLLL",
"LLLLLLLLLLLL  LLHZ73wuBASN7<<6jlzzkhkhyrww>>we8>O LLLLLLLLLLLLLL",
"LLLLLLLLLLLL  LLHHZM1>uiiaNZZZSGGVptttre>>qw8881+ LLLLLLLLLLLLLL",
"LLLLLLLLLLLL  LLHKKA71wwwuBSSASSGFieeeeq>>we85,=+ LLLLLLLLLLLLLL",
"LLLLLLLLLLLLLL oLLKHAM<;;,upippippre>;;>qw885,%OLLLLLLLLLLLLLLLL",
"LLLLLLLLLLLLLL  LLJKKA3>>,qwwwwwwwwq,;;>wr851=O LLLLLLLLLLLLLLLL",
"LLLLLLLLLLLLLLLL  LLKGjhhd,:::;;;;;,qewwre81%OLLLLLLLLLLLLLLLLLL",
"LLLLLLLLLLLLLLLL  LLDSclkh4>>>>>>>;>errrew1=+ LLLLLLLLLLLLLLLLLL",
"LLLLLLLLLLLLLLLLLL $CKGFlkhhhhghhgrwrr888,%OLLLLLLLLLLLLLLLLLLLL",
"LLLLLLLLLLLLLLLLLL #vmmbxlkkkkkkkhtrrw2>,;O LLLLLLLLLLLLLLLLLLLL",
"LLLLLLLLLLLLLLLLLLLL###*MFlkkkstttte0,%OO+LLLLLLLLLLLLLLLLLLLLLL",
"LLLLLLLLLLLLLLLLLLLL   $vbpyst055555,=#   LLLLLLLLLLLLLLLLLLLLLL",
"LLLLLLLLLLLLLLLLLLLLLLLL$#@$@+++++++++LLLLLLLLLLLLLLLLLLLLLLLLLL",
"LLLLLLLLLLLLLLLLLLLLLLLL              LLLLLLLLLLLLLLLLLLLLLLLLLL",
"LLLLLLLLLLLLLLLLLLLLLLLLLLLLLLLLLLLLLLLLLLLLLLLLLLLLLLLLLLLLLLLL",
"LLLLLLLLLLLLLLLLLLLLLLLLLLLLLLLLLLLLLLLLLLLLLLLLLLLLLLLLLLLLLLLL",
"LLLLLLLLLLLLLLLLLLLLLLLLLLLLLLLLLLLLLLLLLLLLLLLLLLLLLLLLLLLLLLLL",
"LLLLLLLLLLLLLLLLLLLLLLLLLLLLLLLLLLLLLLLLLLLLLLLLLLLLLLLLLLLLLLLL",
"LLLLLLLLLLLLLLLLLLLLLLLLLLLLLLLLLLLLLLLLLLLLLLLLLLLLLLLLLLLLLLLL",
"LLLLLLLLLLLLLLLLLLLLLLLLLLLLLLLLLLLLLLLLLLLLLLLLLLLLLLLLLLLLLLLL",
"LLLLLLLLLLLLLLLLLLLLLLLLLLLLLLLLLLLLLLLLLLLLLLLLLLLLLLLLLLLLLLLL",
"LLLLLLLLLLLLLLLLLLLLLLLLLLLLLLLLLLLLLLLLLLLLLLLLLLLLLLLLLLLLLLLL",
"LLLLLLLLLLLLLLLLLLLLLLLLLLLLLLLLLLLLLLLLLLLLLLLLLLLLLLLLLLLLLLLL",
"LLLLLLLLLLLLLLLLLLLLLLLLLLLLLLLLLLLLLLLLLLLLLLLLLLLLLLLLLLLLLLLL",
"LLLLLLLLLLLLLLLLLLLLLLLLLLLLLLLLLLLLLLLLLLLLLLLLLLLLLLLLLLLLLLLL",
"LLLLLLLLLLLLLLLLLLLLLLLLLLLLLLLLLLLLLLLLLLLLLLLLLLLLLLLLLLLLLLLL"
};
