/* XPM */
static char *_46aeccc019b4352e71d2c48b12cf743PX6vhYHQ7ZWv98A1[] = {
/* columns rows colors chars-per-pixel */
"64 64 196 2 ",
"   c None",
".  c #3B2A35",
"X  c #3C2C3C",
"o  c #372736",
"O  c #3D313E",
"+  c #7A1F33",
"@  c #422E3C",
"#  c #4D2D3D",
"$  c #552C3A",
"%  c #522736",
"&  c #44313D",
"*  c #4A333F",
"=  c #54323D",
"-  c #5C333D",
";  c #622539",
":  c #752B36",
">  c #7A2934",
",  c #762938",
"<  c #61333C",
"1  c #6B343C",
"2  c #77323C",
"3  c #7C353C",
"4  c #783337",
"5  c #3F2F40",
"6  c #3E3441",
"7  c #3E3944",
"8  c #423543",
"9  c #4A3441",
"0  c #443A45",
"q  c #4A3B46",
"w  c #463C49",
"e  c #493E4A",
"r  c #533A47",
"t  c #553C4B",
"y  c #5C3E4B",
"u  c #543F52",
"i  c #6E2F40",
"p  c #6A3743",
"a  c #623C45",
"s  c #683943",
"d  c #7C3D43",
"f  c #763843",
"g  c #414047",
"h  c #46424A",
"j  c #4B444B",
"k  c #4A484E",
"l  c #5B4247",
"z  c #56414E",
"x  c #5A424D",
"c  c #50484F",
"v  c #4E4652",
"b  c #4D4C52",
"n  c #5C4352",
"m  c #514C54",
"M  c #564F58",
"N  c #525057",
"B  c #535158",
"V  c #5B515A",
"C  c #664145",
"Z  c #684244",
"A  c #68444D",
"S  c #754349",
"D  c #764649",
"F  c #624757",
"G  c #624959",
"H  c #6C4856",
"J  c #66525E",
"K  c #6B505F",
"L  c #5F5664",
"P  c #6A4E60",
"I  c #6C5464",
"U  c #645A64",
"Y  c #6B5867",
"T  c #6F5668",
"R  c #6A5B66",
"E  c #745B6E",
"W  c #7A5C6B",
"Q  c #745769",
"!  c #765D70",
"~  c #795F72",
"^  c #75606F",
"/  c #766272",
"(  c #7C6474",
")  c #7E6878",
"_  c #7D6977",
"`  c #861B2E",
"'  c #9B1A2A",
"]  c #9B1329",
"[  c #8C1D31",
"{  c #831C31",
"}  c #A31326",
"|  c #A81427",
" . c #A6162A",
".. c #AD1529",
"X. c #A51F2B",
"o. c #AB1B2B",
"O. c #B01F2A",
"+. c #81222F",
"@. c #8D2234",
"#. c #822A35",
"$. c #8C2B34",
"%. c #832F38",
"&. c #962935",
"*. c #9B2C35",
"=. c #9C2C3A",
"-. c #982534",
";. c #833239",
":. c #8B3439",
">. c #863B3C",
",. c #8A3C3B",
"<. c #9D3135",
"1. c #9B333A",
"2. c #963B3C",
"3. c #9D3D3A",
"4. c #AC232D",
"5. c #A7222F",
"6. c #B4232D",
"7. c #BA242E",
"8. c #B7282D",
"9. c #BB2C2F",
"0. c #AD2932",
"q. c #A92E37",
"w. c #B52B31",
"e. c #BB2A31",
"r. c #A53B3A",
"t. c #AC3B3B",
"y. c #A7363A",
"u. c #B43032",
"i. c #BB3635",
"p. c #BE3C35",
"a. c #BE3D39",
"s. c #B0383B",
"d. c #C22F2F",
"f. c #C3312F",
"g. c #C42F32",
"h. c #C33433",
"j. c #C63B34",
"k. c #CB3C35",
"l. c #D13E38",
"z. c #9B423D",
"x. c #A5423B",
"c. c #AB433D",
"v. c #B0413A",
"b. c #BD423D",
"n. c #CF4036",
"m. c #C3443C",
"M. c #CC423A",
"N. c #CB493D",
"B. c #C14337",
"V. c #D44436",
"C. c #D4473A",
"Z. c #823C42",
"A. c #8A3743",
"S. c #903F53",
"D. c #824546",
"F. c #8B4043",
"G. c #924444",
"H. c #934B4C",
"J. c #804A51",
"K. c #924154",
"L. c #A24341",
"P. c #AC4945",
"I. c #B55049",
"U. c #855966",
"Y. c #826476",
"T. c #836A7B",
"R. c #896B7D",
"E. c #846678",
"W. c #95667A",
"Q. c #8E6F83",
"!. c #906F84",
"~. c #8E7183",
"^. c #927285",
"/. c #997587",
"(. c #947689",
"). c #9C7689",
"_. c #95798B",
"`. c #997A8C",
"'. c #9D7D92",
"]. c #A17F93",
"[. c #A28195",
"{. c #A6859A",
"}. c #A8869C",
"|. c #AA899D",
" X c #A6889B",
".X c #AE8CA2",
"XX c #B18EA4",
"oX c #B291A6",
"OX c #B594A9",
"+X c #B997AC",
"@X c #BB9AAE",
"#X c #BE9EB2",
"$X c #C7A7BA",
"%X c #C4A3B6",
"&X c #CCACC0",
"*X c #D5B9CA",
/* pixels */
"                                                                                                                                ",
"                                                                                                                                ",
"                                                                                                                                ",
"                                                                                                                                ",
"                                                                                                                                ",
"                                                                                                                                ",
"                                                                                                                                ",
"                                                                                                                                ",
"                                                                                                                                ",
"                                                                                                                                ",
"                                                                                                                                ",
"                                                        |.+X#X$X%X#X#X                                                          ",
"                                                    ^.~.^.^.(.XXXX.XXXOX$X*X                                                    ",
"                                                ^.~.Q.!.Q.Q.!.'..X.XXX|.XX%X$X                                                  ",
"                                            `.T.Q.Q.Q.!.Q.!.!.(.|.XXXX.XXX|.XXXXoX                                              ",
"                                          ( T.~.E.Q.Q.^.Q.R.Q z I ^.{.XXXXXXXX[.`.'.{.                                          ",
"                    N m ;             / E E ! ^.~.Y.R.Y.P r * o . * F R.}..X].^.Q.Q.^.[.            ; r B                       ",
"                    N m { >         ^ ! E E ! ( _.E x 9 @ 0       q @ @ F Q Y.Q.^.Q.Q.^. X          ` a N                       ",
"                    m m [ ]       E ! E E ! E ! T.z o @ X 8 & 8 8 8 O & . o F R.Q.Q.Q.Q.(.{.      ` } a N                       ",
"                    N m [ | {     E E ! ! ! E I t *     X v         8       @ n T.Q.!.Q.!.(..X    ] } y N                       ",
"                    N m [ ..' W..XT.T E ! E n q 9       8 m         8         @ t ~ !.Q.Q._.OXOX@.} } y m                       ",
"                    N m @.....S.OX#X^.T T n 9 q         8 m         0           @ r ~ Q.!..XXX!.' | | a m                       ",
"                    m b @.....-.`.OX+X'.q @ @ 8 8 8 8 0 8 w w 0 e h 0 w j w h h 0 @ 9 Q }.XX.XS.| | o.a N                       ",
"                    m v $.:., , W .XXX^.@ X o 5         5 8       O O 8       6 & 0 o u ].XX'.i , 2 =.y N                       ",
"                    N k f e 8 5 u ].].y 9   X j         8 m         8           8     * K {.~ X 6 g p y N                       ",
"                    m m #.< = $ 9 !.H 9     X j         8 m         8           8       * W H % $ = #.a N                       ",
"                    m c -.o.X.4. .p 9       6 e         8 v         0           w       0 * @.4.5.X.5.a b                       ",
"                    m c =.O.O.O.O., X 5 X X X 5 @ X 8 6 X 6 8 8 8 0 8 0 w 0 w 0 8 h h j h = 5.8.7.O.6.a N                       ",
"                    b c *.7.6.8.6.*.        6 0         6           O           8         ;.6.4.O.O.7.a N                       ",
"                    m c *.7.6.7.6.0.                    e           h           j         =.8.6.6.6.7.a b                       ",
"                    B c *.7.8.8.7.w.                                                      q.7.6.6.6.e.a b                       ",
"                    V k <.7.8.w.0.q.                                                      1.0.0.7.w.e.a N /                     ",
"                    V j 1.A.1 y $ #                                                       9 # r 1 d y.a m /                     ",
"                    V c >.j 7 6 X @                                                       @ X & 8 0 S C b /                     ",
"              _.R._ V j :.1 - : #.$.                                                      :.$.: 1 r :.C b _ ~._.                ",
"              ~ E E M j 2.>.q.9.h.i.                                                      s.g.9.w.%.y.a b Y ! (                 ",
"              E E E M c C M K <.f.i.                                                      s.h.u.S U y x k R ! E                 ",
"              E E E M j A j * 3 h.i.                                                      y.h.y.- 0 A l b I Q E                 ",
"                    m c >.1 $.>.h.a.                                                      t.k.r.%.> d C k U                     ",
"                    M j 3.:.4 y.j.a.                                                      t.k.i.;.2 y.Z b                       ",
"                    V h r.j.i.k.h.j.                                                      t.k.j.h.i.k.C b                       ",
"                    B j r.V.k.k.k.m.                                                      c.l.j.k.k.k.C b                       ",
"              #X@XoXJ j r.n.k.l.j.c.                                                      G.p.j.n.k.M.C b ~. X{.                ",
"              XX.X|.U h c.M.P.F.y *                                                       9 = d L.b.M.a k ( !.Q.                ",
"              .X|.|.R j L.D q 8 X 8                                                       9 X X 0 x P.Z k ( Q.Q.                ",
"              }.{.{.R j D.k 8 = 4 3.                                                      H.:.< 9 g D C k ) ^.^.                ",
"        `.`.`.(.^./.V j z.z.3.B.V.m.                                                      I.V.B.x.z.x.C k ) ^.^.(.`.[.          ",
"        ~.Q.Q.!.~.^.V h x.C.V.C.v.H.^.).).).).).).}.XXXXXXXXXXXXXXXXoXXXXX/./.).).).).)./.U.c.p.V.V.N.A k ) ^.Q.Q.Q.^.          ",
"        ^.^.~.^.^.~.V h c.m.z.D W T.R.!./.W./.^./.{.}.}.{.{.}.{.}.{.|.}.}.[./././.(./././.^.T.U.G.v.N.Z k / R.~.~.R.R.          ",
"          ^.^._._.(.V h f D J _ ( ( ( ( ( _ ( _ T._.(.(.(.(.(.~.Q.~.(.(._.`.`.(.(.(.(._.(.(.(._._ J z.l k ^ R.R.T._ T.          ",
"                                                                                                                                ",
"                                                                                                                                ",
"                                                                                                                                ",
"                                                                                                                                ",
"                                                                                                                                ",
"                                                                                                                                ",
"                                                                                                                                ",
"                                                                                                                                ",
"                                                                                                                                ",
"                                                                                                                                ",
"                                                                                                                                ",
"                                                                                                                                ",
"                                                                                                                                ",
"                                                                                                                                "
};
