/* XPM */
static char *b4b1c3a42c9b45c4f2d02f4c3eabf5b4i3IhD6aiDkvbv807[] = {
/* columns rows colors chars-per-pixel */
"64 64 181 2 ",
"   c None",
".  c #0F0E0E",
"X  c #170E0F",
"o  c #100F10",
"O  c #141515",
"+  c #1D1314",
"@  c #181817",
"#  c #16191A",
"$  c #1B1C1C",
"%  c #141718",
"&  c #220506",
"*  c #220609",
"=  c #310A0C",
"-  c #2F130F",
";  c #340F12",
":  c #291012",
">  c #221B1C",
",  c #2C1D1B",
"<  c #261512",
"1  c #361611",
"2  c #3C1114",
"3  c #311A18",
"4  c #3A1B16",
"5  c #20201F",
"6  c #1D1F20",
"7  c #201E20",
"8  c #1E2224",
"9  c #222425",
"0  c #282424",
"q  c #282826",
"w  c #222729",
"e  c #252A2C",
"r  c #2A2C2C",
"t  c #362423",
"y  c #382F2F",
"u  c #392A29",
"i  c #2A2E31",
"p  c #2D3133",
"a  c #2F3538",
"s  c #333434",
"d  c #3B3535",
"f  c #373836",
"g  c #323739",
"h  c #353A3C",
"j  c #3A3C3C",
"k  c #480F06",
"l  c #42060A",
"z  c #580B0F",
"x  c #53170D",
"c  c #58170C",
"v  c #4D0C10",
"b  c #590D12",
"n  c #441D1B",
"m  c #4A1E16",
"M  c #511B1F",
"N  c #5B1D17",
"B  c #62050B",
"V  c #74040B",
"C  c #7C0107",
"Z  c #6B0C12",
"A  c #61151B",
"S  c #43201B",
"D  c #5D2117",
"F  c #5C2118",
"G  c #66261C",
"H  c #6C2017",
"J  c #7B241D",
"K  c #482826",
"L  c #55292C",
"P  c #512427",
"I  c #473637",
"U  c #503031",
"Y  c #5D3B3A",
"T  c #6F2E27",
"R  c #6A2228",
"E  c #642D32",
"W  c #74353C",
"Q  c #45403F",
"!  c #3D3F40",
"~  c #373F42",
"^  c #413F41",
"/  c #663C40",
"(  c #3C4144",
")  c #3D4448",
"_  c #434444",
"`  c #494947",
"'  c #424649",
"]  c #4B464A",
"[  c #454A4C",
"{  c #4B4C4C",
"}  c #494243",
"|  c #574749",
" . c #454E53",
".. c #4C4F51",
"X. c #4D5153",
"o. c #4C5559",
"O. c #4F595E",
"+. c #475054",
"@. c #535455",
"#. c #585757",
"$. c #545758",
"%. c #55595A",
"&. c #5B5C5C",
"*. c #6A4845",
"=. c #754846",
"-. c #615857",
";. c #6B5C5A",
":. c #685759",
">. c #715854",
",. c #5F605D",
"<. c #63615F",
"1. c #535E63",
"2. c #5D5F62",
"3. c #576267",
"4. c #5D6264",
"5. c #5B656B",
"6. c #5C696F",
"7. c #5E6D73",
"8. c #646464",
"9. c #656768",
"0. c #65696A",
"q. c #6B6B6B",
"w. c #6A6A67",
"e. c #766A69",
"r. c #70706D",
"t. c #626D73",
"y. c #696E70",
"u. c #6D7274",
"i. c #657379",
"p. c #747474",
"a. c #7D7273",
"s. c #787877",
"d. c #7B7B7B",
"f. c #767A7B",
"g. c #88030B",
"h. c #92030B",
"j. c #9F030C",
"k. c #820F16",
"l. c #A5030C",
"z. c #AE050F",
"x. c #AB0F17",
"c. c #AD1713",
"v. c #8F242A",
"b. c #9D242A",
"n. c #8F353A",
"m. c #C50914",
"M. c #E30A16",
"N. c #857877",
"B. c #80807D",
"V. c #7B7F81",
"C. c #737E83",
"Z. c #7E8689",
"A. c #858585",
"S. c #8C8484",
"D. c #898A85",
"F. c #86898A",
"G. c #8C8C8B",
"H. c #818688",
"J. c #928E8D",
"K. c #8C9091",
"L. c #949494",
"P. c #999495",
"I. c #999995",
"U. c #9C9C9B",
"Y. c #A29E9E",
"T. c #A1A1A0",
"R. c #A4A4A4",
"E. c #A7A8A2",
"W. c #AAABA6",
"Q. c #A6A8A9",
"!. c #ACADAC",
"~. c #AFB0AA",
"^. c #B2B3AE",
"/. c #B3B4B4",
"(. c #B9B9B4",
"). c #BCBCBA",
"_. c #BFC0BB",
"`. c #C2C3BD",
"'. c #C6C6C6",
"]. c #C4C4C1",
"[. c #C8C9C6",
/* pixels */
"                                                                                                                                ",
"                                                                                                                                ",
"                                                                                                                                ",
"                                                                                                                                ",
"                                                                                                                                ",
"                                                                                                                                ",
"                                                                                                                                ",
"                                                                                                                                ",
"                                                                                                                                ",
"                                                                                                                                ",
"                                                                                                                                ",
"                                                                                                                                ",
"                                                    `                                                                           ",
"                                                    8.        r                                                                 ",
"                                                    y.        @.                                                                ",
"                                          j   6   $.u.q.    +.w.                                                                ",
"                                          1.  9 q ..u.d.@ $ @.p.  $                                                             ",
"                                          4.p.9 $ f o.%.r f f j $ $                                                             ",
"                                        $ @.q.h e j s ` 8.;.#.@.` f e @.                                                        ",
"                                      @.r e e e j ` 8.r.Y n 3 5 e } ` s                                                         ",
"                                ] e p J.d.9 w h ` 9.N.D 1 9 a @.-._ e } # i                                                     ",
"                                w i _ 9./.h e _ &.S.N 1 j ) p u.#.&.a j _ 6                                                     ",
"                              9 i _ @.#./.8.j { A.*.k p 8.@.p o.e #.[ ( @.s r &.                                                ",
"                            e e ( ..@.&.Q.d.` #.J.D 4 [ &.[ a t.8.G.@.` ` @.e e                                                 ",
"                            9 e 2.&.9.&.Y.K.' 2.S.c , ' { a ~ K.I.U.d.~ ! #.s 7 h                                               ",
"                          ~ w e _ %.p.w.Y.L._ &.S.x > 9 8 ~ Z./.@.@.).q.s @.~ 6 i                                               ",
"                          6 w ] #.r.d.q.Y.L.] &.J.S $ 8 o.F.(.'.B.d.'.].9.@.[ 7 6 i                                             ",
"                        1.i 9  .@.r.s.q.Q.L.{ 2.d.;.O p u.A.J.W.'.[.!.R.N.#.2.i i 6.6.                                          ",
"                      +.i.3.g w ' 9.u.9.^.A.{ -.&.A.f 9 8.r.x G *.=.G ;.@.j 9.] 1.i.o.                                          ",
"                        ( t.6. .h #.<.q.).d.#.q.w.8.f 9 ..U.N.A c.c.T U.( q 2.X.1.!                                             ",
"                        l R 2.t.5.o.9.G.).8.%.q.p.d.&.s ) V.!.G.J J L.R.&.-.w.} N n ..                                          ",
"                        B l.k.Y 5.7.C.Q.!.] ..2.8.s.A.d.@.o.H./.>.*.Q.9.d.p.4.U C Y K.                                          ",
"                      ~ l h.l.j.k.E | 2.%.i @.8.8.8.p.F.P.V.%.V.D.A.p.s.p.q.9.I M P.F.7                                         ",
"                     .6.] P z C l.l.g.z $ w ..9.&.&.d.p.G.P.F.%.{ @.p.p.w.#.9.I J.R.! p                 8.W.A.                  ",
"                    6 g y.R.A.*.b V h.= w e ' &.@.&.d.d.f.F.J.G.d.D.d.s.p...X.d.Q.` w d.8.          <.U.`.W.p.                  ",
"                    g $ w #.G./.L.L V ; e e g #.&.<.r.&.9.d.r.d.p.u.u.&.8.8.&.A.{ 9 8.P._         { ^.(.a.p 9 d : q             ",
"                    6.( 8 6 e @.T.U.M = 8 e i ..8.9.8.@.9.p.#.u.0.#.q...&.w.#.` e #.T.&._ {         B.` O O q -.N >             ",
"                    ~ 1.O...[ 9 ~ !.:.& 8 8 8 a #.9.9.8.q.q.%.u.q.#.8.8.8.X.~ r g I.q.8._           @ O 6 ] ,...I               ",
"                  ..e 6 h u./.L.h p.N.& 8 i e e s @.8.q.q.8.$.' ) &.q.9.@.' g $ q.A.&.@._           o r &.&.e @ _               ",
"                  ..e # f p 8.T.U.X.^ & , i i e i i h { ..' s n t ( @.@.y h h [ L.8.8.&.&.        + n ] g O $ 0 s               ",
"                    # 8 #.e [ 8.U.Q.A.a.n 1 6 i e e e i i t c G A 4 9 5 6 [ o.) ~ @.$.d.q.    w ' { k @ $ $ q 5 e `             ",
"                     .e 8 8 j 4.8.r.d.T.g 0 # 6 w 6 6 9 # < ] N.e.5 5 p 8 p 6 6 8 ~ #.%.9 # h 4.,.!   o > $ q 5 $ f             ",
"                    ) 5. .a p { 2.2.p.A.s i # r f # $ s s 6 2.v.n.f 5 f # 6 6 p  .[ p  .{ { 9.`         5 @ > 5 f r.N.          ",
"                    i ~ +.3.O.5.P.R.Y.@.$ # # O O % O # # O o.W =.f 5 e [ t.7.5.[ w _ 9.#.j s     _ Q ! 5 @ s B.E.).(.          ",
"                      ( h X.{ [ -.8.~ e i i e e w i ^ ^ ^ d.d.o.0.G.#...j ' g w i i s j r       $ p q 5 5 s D.`.`.W.G.&.        ",
"                      h ~ &.8.9.w.9.j  .o.) ~ ~ g p _ ] A.T.Y v L P.G.r.#.f 6 a '  .g ..@.      @ @ @ > ` I.(.I.G.`             ",
"                        q p g 4.9.@.s a ) +.o.O.1.1.O.0.Q.*.h.m.z.E K.B.#.o 0 ..8.q.9.#.f     O q q s w.W.`.W.`                 ",
"                            # ' ]       6 p g 8 w i i i K z m.M.M.V 7 e   y t q.q.2.]         { D.I.W.(.`.^.w.                  ",
"                              O         i a $.8._ f 9     2 Z x.b./ j 9     > { {             I.[.`.^.^.I.<.                    ",
"                                        r a [ f.p.[ s     i i ! q.#.f                         E.I.r.` `                         ",
"                                        g h g p 9 9       j g a w 9 9                         <.                                ",
"                                        e i 8 $ p s 9     e w @ 9 s r                                                           ",
"                                                                                                                                ",
"                                                                                                                                ",
"                                                                                                                                ",
"                                                                                                                                ",
"                                                                                                                                ",
"                                                                                                                                ",
"                                                                                                                                ",
"                                                                                                                                ",
"                                                                                                                                ",
"                                                                                                                                ",
"                                                                                                                                ",
"                                                                                                                                "
};
