/* XPM */
static char *_0d001427964400ca4f7c7c072c9e514aIQ5PLwsbOohVcFN[] = {
/* columns rows colors chars-per-pixel */
"45 63 135 2 ",
"   c None",
".  c #000000",
"X  c #1F1A00",
"o  c #342C01",
"O  c #3E3401",
"+  c #461615",
"@  c #4D1E17",
"#  c #451618",
"$  c #48171C",
"%  c #471818",
"&  c #491A1A",
"*  c #50121E",
"=  c #542616",
"-  c #572816",
";  c #5C2D15",
":  c #5F3115",
">  c #623415",
",  c #663814",
"<  c #6A3B14",
"1  c #471D24",
"2  c #4A1D23",
"3  c #511725",
"4  c #4A2125",
"5  c #49232C",
"6  c #4C2A33",
"7  c #4E2F3C",
"8  c #552236",
"9  c #502837",
"0  c #4E313E",
"q  c #524501",
"w  c #635301",
"e  c #6E4014",
"r  c #714313",
"t  c #774911",
"y  c #794C12",
"u  c #7E5012",
"i  c #776301",
"p  c #786501",
"a  c #4F3342",
"s  c #523648",
"d  c #523A4D",
"f  c #533E53",
"g  c #5B3D5D",
"h  c #534056",
"j  c #55445D",
"k  c #554660",
"l  c #574D6A",
"z  c #584E6C",
"x  c #5A5474",
"c  c #5A5679",
"v  c #825511",
"b  c #865911",
"n  c #8A5C10",
"m  c #846E02",
"M  c #94670F",
"N  c #9B6E0E",
"B  c #867002",
"V  c #967D02",
"C  c #9F720E",
"Z  c #8E6110",
"A  c #A1750E",
"S  c #A5780D",
"D  c #AA7E0D",
"F  c #A48902",
"G  c #AF830C",
"H  c #B1850C",
"J  c #B68A0B",
"K  c #BA8E0B",
"L  c #AD9002",
"P  c #B29502",
"I  c #B99B02",
"U  c #BF930A",
"Y  c #C1950A",
"T  c #C69B09",
"R  c #C99E09",
"E  c #C2A202",
"W  c #C8A702",
"Q  c #CFA309",
"!  c #D0AE02",
"~  c #DAAF07",
"^  c #D5AA08",
"/  c #D4B102",
"(  c #DDB406",
")  c #E1B606",
"_  c #E3BB05",
"`  c #EABF05",
"'  c #EDC305",
"]  c #F1C605",
"[  c #F5CC04",
"{  c #F9CF04",
"}  c #FFD503",
"|  c #FFD903",
" . c #5D5D84",
".. c #5D5F88",
"X. c #5D6089",
"o. c #5F6590",
"O. c #616E9E",
"+. c #626FA1",
"@. c #6271A2",
"#. c #6579AF",
"$. c #766EBB",
"%. c #667CB5",
"&. c #677FB9",
"*. c #6A7BB9",
"=. c #7D7AD1",
"-. c #B411A9",
";. c #AF26B9",
":. c #C010B9",
">. c #BD2AD1",
",. c #CF0AC7",
"<. c #D30FD3",
"1. c #F60CFF",
"2. c #F90BFF",
"3. c #D72BF8",
"4. c #DB2DFF",
"5. c #DA30FF",
"6. c #6780BA",
"7. c #6883BF",
"8. c #6884C0",
"9. c #6A89C9",
"0. c #6D8ED2",
"q. c #6E95DB",
"w. c #6F98DF",
"e. c #6F99E1",
"r. c #739CEA",
"t. c #71A0EC",
"y. c #73A6F5",
"u. c #79A7FF",
"i. c #75ACFF",
"p. c #79AAFF",
"a. c #77B1FF",
"s. c #8591F7",
"d. c #8C90FF",
"f. c #8C92FF",
"g. c #8A92FF",
/* pixels */
"                                                                                          ",
"                                                                                          ",
"                                                                                          ",
"                            % % % % % % % % % % % % % % % % %                             ",
"                            % % % % % % % % % % % % % % % % %                             ",
"                        % % % % % % % % % % % % % % % % % % % % %                         ",
"                        % % % % % % % % % % % % % % % % % % % % %                         ",
"                    % % % % % % & + % % % % % % % % % % % % % % % % %                     ",
"                    % % % % % % % % % % % % % % % % % % % % % % % % %                     ",
"                  % % % % % % % % % % % % % % % % % % % % % % % % % % %                   ",
"                  % % % % % % % % % % % % % % % % + % % % % % % % % % % %                 ",
"                  % % % % % # # % % % % % % % % # & % % % % % % % % % % % %               ",
"              % % % % % + @ A D = + % % % % % b J < + & % + % % % % % % % %               ",
"              % % % + & & - ( ' > & % % % & @ H | v # # & @ & % % % % % % %               ",
"              % % % % & S ^ [ } ^ H @ # # u Q ` } v # # = Y J @ # # % % % %               ",
"              % % % % & R | } } | ( : - = A | } } n = = < ' ) > = % % % % %               ",
"              % % % % & T | } } } { ) ) ) ' } } } ' ) ) _ } { _ H & + # # % % %           ",
"              % % % % @ R | } } } } } | } } } } } } | } } } } | R & = , = % % %           ",
"          % % % + & + & T | | } | | } } } } } } } } } | | } } | R # Z ] M # % %           ",
"          % % % & # & & T } W I I ( } } } } } } } ! I I E [ } } ^ y H } N # % %           ",
"          % % % + & + # T [ o . . O } } } } } } } q . . X _ | } } } } | N # % %           ",
"          % % % % # r M ( { m w w B [ } } } } } } V w w i ' } } } | ( J y # % %           ",
"          % % + & # H | } } } } } } } } } } } } } } } } } } } } } | H # % % % %           ",
"          % % & # # H | } } } } } } | / i F   } } } } } } } } | ) A y + % % % %           ",
"          % % % # # H } } } } } } } | L .     } } } } } } } } } T # # % % % % %           ",
"          % % % & + < n ~ | } } } } } ' P _ } } } } } } ] M v b r & & + % % % %           ",
"          % & + % % # # Y { [ [ } } } } | } } } } } } { ) ; # # # % % % % % % %           ",
"          % % % % % % & > r e v ' } } } } } } } } } [ n < @ % # % % % % % % % %           ",
"          % % % % % % % # # # ; ^ ' _ ' ] } } } } } ] < # % % % % % % % % % % %           ",
"              % %   % % % % + & ; : ; ; : ( } } }     & # # % % % % %   % %               ",
"              %       % % % % % # # # # # G } } } A # # % % % % % % %     %               ",
"                                        # C | | | b #             % %                     ",
"                                      % + u T T U e +             %                       ",
"                                    + % % % & % & % % + + % %                             ",
"                                  0  .j % % % % % % & z c 4 %                             ",
"                        # + % % # s y.&.% % % % % % 4 0.r.6 + % % + %                     ",
"                      & X.O.6 4 o.%.i.e.@.@.+.+.+.+.@.t.y.#. .& a +.c +                   ",
"                    & 2 6.y.s 9 r.u.u.u.i.u.u.i.u.i.i.u.u.i.0.4 j i.O.&                   ",
"                  &  .7.c g -.,.3.4.4.4.5.5.4.4.5.4.5.4.5.5.>.3 5 f  .7.x +               ",
"                  + O.i.j * <.2.1.1.1.1.1.1.1.1.1.1.1.1.2.2.<.8 4 + x a. .+               ",
"                  & +.i.j 2 =.f.g.g.g.g.g.d.g.g.g.g.g.g.g.f.s.w.o.+ c a. .+               ",
"                  + X.q.f 2 =.f.g.g.g.g.g.g.g.g.g.g.f.g.g.f.f.f.=.% l w.z +               ",
"                  % 1 5 & 3 <.1.1.1.1.1.1.1.1.1.1.1.1.1.1.1.2.2.-.$ 1 5 2 %               ",
"                  % > t - 3 >.4.4.4.4.4.4.4.4.4.4.4.4.4.4.4.4.4.;.$ ; t ; +               ",
"                  # G } u 1 0.u.u.u.u.u.u.u.u.u.u.u.u.u.u.u.u.u.*.$ M } N #               ",
"                  + n K < 4 0.i.i.i.i.i.i.i.i.i.i.i.i.i.i.i.i.i.&.$ y K y #               ",
"                  % % % % 4 0.a.i.i.i.i.i.i.i.i.i.i.i.i.i.i.i.i.&.1 % % % %               ",
"                        % 4 0.i.i.i.i.q.X.X.....X.q.i.i.i.i.i.i.&.& %                     ",
"                        + 4 0.i.i.i.a.%.& + + + # %.a.i.i.i.i.i.&.& %                     ",
"                        + 4 0.a.i.i.i.%.& +   + % %.i.i.i.i.i.a.&.& %                     ",
"                        % 1 9.y.y.y.y.#.& %   % & %.y.y.y.y.y.y.%.& %                     ",
"                        & & a d d d f 0 % %   % % 0 d d d d d d 7 # %                     ",
"                        % % + + + + + + % %   % % + + + + + + + # %                       ",
"                                % % % % % %   % % % % % + % %                             ",
"                                % % % % % %   % % % % % % % %                             ",
"                            % % % % % % % %   % % % % % % % % % &                         ",
"                            % % % % % % %       % % % % % % % %                           ",
"                                                                                          ",
"                                                                                          ",
"                                                                                          ",
"                                                                                          ",
"                                                                                          ",
"                                                                                          "
};
