/* XPM */
static char *_09d343e589b4a80a97b57d9bc8d6420v3yKlNIPbtEWxQv9[] = {
/* columns rows colors chars-per-pixel */
"64 64 200 2 ",
"   c None",
".  c #2B1A2E",
"X  c #3C1C2C",
"o  c #301C2F",
"O  c #2D1E30",
"+  c #311F31",
"@  c #33222F",
"#  c #362533",
"$  c #3C2534",
"%  c #3B2A36",
"&  c #37283A",
"*  c #3C2C3B",
"=  c #39263B",
"-  c #3B333F",
";  c #740D1B",
":  c #7C0C1D",
">  c #75111F",
",  c #6C0B1B",
"<  c #431C2C",
"1  c #491B2B",
"2  c #5C1C29",
"3  c #551727",
"4  c #680D22",
"5  c #760F21",
"6  c #6D1628",
"7  c #661626",
"8  c #771526",
"9  c #4D232F",
"0  c #59222E",
"q  c #4C2433",
"w  c #432D3B",
"e  c #4B2B3B",
"r  c #452734",
"t  c #512D3B",
"y  c #582736",
"u  c #45313E",
"i  c #4A313E",
"p  c #52343E",
"a  c #5B343D",
"s  c #6B2937",
"d  c #742C35",
"f  c #792C36",
"g  c #772F38",
"h  c #6C343C",
"j  c #69353E",
"k  c #763037",
"l  c #74333C",
"z  c #7B3239",
"x  c #783037",
"c  c #6E252B",
"v  c #3B2E40",
"b  c #3D3341",
"n  c #3F3C45",
"m  c #433542",
"M  c #4B3542",
"N  c #423C46",
"B  c #493C47",
"V  c #513946",
"C  c #533C4B",
"Z  c #5A3B46",
"A  c #6F3A40",
"S  c #653C45",
"D  c #733B42",
"F  c #7A3942",
"G  c #783641",
"H  c #424047",
"J  c #424148",
"K  c #4B4148",
"L  c #5D4247",
"P  c #59414F",
"I  c #56434F",
"U  c #5C4553",
"Y  c #544654",
"T  c #57505E",
"R  c #744246",
"E  c #75454A",
"W  c #7B4548",
"Q  c #634B5B",
"!  c #654A59",
"~  c #68505F",
"^  c #5C5463",
"/  c #694F60",
"(  c #6D5363",
")  c #745768",
"_  c #755B6E",
"`  c #785E6E",
"'  c #725666",
"]  c #765E70",
"[  c #7A5F71",
"{  c #7C6374",
"}  c #7F6578",
"|  c #820B1E",
" . c #830C21",
".. c #950F23",
"X. c #8C1623",
"o. c #8F1924",
"O. c #841A28",
"+. c #9D1C29",
"@. c #971926",
"#. c #A21426",
"$. c #A61C27",
"%. c #A91C27",
"&. c #AD1529",
"*. c #A51E2B",
"=. c #AB1D2A",
"-. c #A81328",
";. c #B21E2B",
":. c #942429",
">. c #9B2429",
",. c #9E2A2B",
"<. c #93262A",
"1. c #822433",
"2. c #8A2936",
"3. c #942434",
"4. c #9C2634",
"5. c #972F33",
"6. c #863435",
"7. c #8D3537",
"8. c #8B363B",
"9. c #8D3B3B",
"0. c #833A3D",
"q. c #9D3336",
"w. c #923C3B",
"e. c #9B3A3D",
"r. c #97363B",
"t. c #892D2E",
"y. c #AB212B",
"u. c #A7292D",
"i. c #B5232D",
"p. c #BA252E",
"a. c #B52A2C",
"s. c #BA2A2E",
"d. c #BA312E",
"f. c #A22332",
"g. c #BE2A31",
"h. c #B62931",
"j. c #A53A3A",
"k. c #AC3A39",
"l. c #AA3236",
"z. c #B43435",
"x. c #BC3331",
"c. c #B73937",
"v. c #AA322E",
"b. c #C02B31",
"n. c #C43432",
"m. c #C83534",
"M. c #C43B33",
"N. c #CC3C35",
"B. c #D03F38",
"V. c #D03E36",
"C. c #8E403D",
"Z. c #98423D",
"A. c #BD473C",
"S. c #CC4235",
"D. c #CE4238",
"F. c #C84437",
"G. c #D2433A",
"H. c #DA4B3A",
"J. c #D54737",
"K. c #873D43",
"L. c #864147",
"P. c #8C464A",
"I. c #824848",
"U. c #944C4E",
"Y. c #96474A",
"T. c #964E52",
"R. c #9B5355",
"E. c #935053",
"W. c #AE4843",
"Q. c #816576",
"!. c #836679",
"~. c #856A7C",
"^. c #8A6C7E",
"/. c #89667A",
"(. c #8E6F83",
"). c #916F83",
"_. c #8E7184",
"`. c #917285",
"'. c #94758A",
"]. c #95798B",
"[. c #9A7A8E",
"{. c #9D7E92",
"}. c #A07E94",
"|. c #9E8194",
" X c #A28296",
".X c #A48499",
"XX c #A9869B",
"oX c #AB899E",
"OX c #AF8CA2",
"+X c #B18DA3",
"@X c #B391A6",
"#X c #B693A9",
"$X c #B998AC",
"%X c #B997AC",
"&X c #BE9CB1",
"*X c #C09EB2",
"=X c #C2A2B5",
"-X c #CAABBE",
";X c #C6A6BA",
":X c #CCAEC0",
/* pixels */
"                                                                                                                                ",
"                                                                                                                                ",
"                                                                                                                                ",
"                                                                                                                                ",
"                                                                                                                                ",
"                                                                                                                                ",
"                                                                                                                                ",
"                                                                                                                                ",
"                                                                                                                                ",
"                                                                                                                                ",
"                                                                                                                                ",
"                                                                                                                                ",
"                                                            $X&X=X:X;X=X                                                        ",
"                                                        `.`.'.{.XX%XOX+X#X;X                                                    ",
"                                                    `.(.(.(.(.(.'.OXOXOXOX@X&X;X                                                ",
"                                                _.~.(.(.).(.(.(._.}.OX+XOXOXOX+X+X@X                                            ",
"                                            _ { (.(.} (.(.(.(.] U P Q.[.oX+XOX+X.X[.[.|.                                        ",
"                                          ] ] _ [ [.(.} Q.( C = < X < M ( '.XX{.`.(.(.`.[.                                      ",
"                                        _ ] _ ] _ [ ).C M r < 4 > , 4 1 $ i U ( (.(.).(._.|.                                    ",
"                                      ] ] _ ] _ ] ] / m q 6  . .: ; : ; 4 1 # M ) (.(.(.(.`.{.                                  ",
"                                    ~._ _ ] ] ) / C M s X.&.-...X.: : : | : 3 X w Q (.(.).).`.OX                                ",
"                                  @X$X{._ ) _ T M M O.&.-.-.&.&.$..... .5 : ; ; < $ U /.).`.}.@X%X:X                            ",
"                                OXOX@X&XOX{ C M y +.&.&.=.&.&.&.&.+.&.#...: :  .5 3 $ C ` {.OXOXOX*X                            ",
"                              OX+XOXOXOX@X!.% e 1.3.3.3.3.4.=.&.=.$.&.=.4.1.6 8 6 6 < + C }.+XOXOX@X:X                          ",
"                              OXOXOX+X+X[.C * m m m M m B B S f.%.#.=.F C K m * @ + o . $ ( XXOXOXOX%X;X                        ",
"                            OXOXOXOX+X{.C e q e q q M V p V g y.;.$.;.2.a i i p r X X X o r Q.+XOXOXOX@X                        ",
"                             XOX+X+XXXQ t :.y.@.*.;.&.*.+.=.;.;.=.$.;.;.y.*.$.y.%.+.O.8 8 1 i ^.+X+XOXOX@X                      ",
"                          }.OXOXXX X_ e 1.p.i.$.;.p.p.;.&.p.b.p.i.%.p.p.p.=.=.p.p.p.>.X.X.8 X P [.XX.X X.X                      ",
"                          (.'. XXX!.u s y.h.p.$.p.p.p.p.$.i.h.p.i.=.p.p.p.;.=.p.i.p.y.$.o.X.7 % U ^.`.(.'.OX                    ",
"                        `.(.(.(.'.` r f.p.h.p.y.p.h.h.p.=.p.g.p.i.=.p.g.s.i.=.s.p.h.y.i.y.o.O.1 u { ).(.`..X                    ",
"                        _.`.(.(._.! y h.b.b.b.a.p.g.g.h.=.g.h.b.p.y.b.b.b.a.$.b.s.p.y.p.a.@.o.2 * ) (.).`.'.                    ",
"                        (.(.(.`.~.V e h g l G l G G F F D K.q.g.a.y.b.z.K.D l F F l h l l 0 2 < % / (.(.(.(.                    ",
"                        ~.(.(.(.[ M w = & v * v - b b N n N Z z.a.y.n.D J H n n b b b * & O . . % ! ~.(.(._._.                  ",
"                    '.~.!.(.(.(.} M e d f f g d g k k z k 0.l.m.s.i.b.z.8.l k z g g d d g 2 2 < # U { ~._._.].[.|.              ",
"                  !.] _ ] ] ] ] { V t z.n.n.m.s.n.x.s.n.s.l.8.K.d.a.j.8.q.a.a.n.n.n.a.b.x.>.@.0 * Q _ ] ] { { { ^.              ",
"                  ] ] ] _ _ _ ] ] V p z.m.n.M.a.n.n.n.n.v.a T Y w.u.C ^ B q.a.m.m.n.d.n.x.>.:.9 w Q ] _ _ _ _ _ ]               ",
"                  ` _ _ _ _ _ _ ( M M z.N.m.m.s.n.N.m.n.6.Z i Z 0.q.S Z p l a.N.N.m.M.M.x.>.:.9 % U _ _ _ _ _ _ ]               ",
"                        } !.!.~._ w w k.N.N.N.x.m.N.N.N.8.K.e.L.K.j.F K.K.K.x.N.N.N.M.N.M.,.:.9 # ~ `.].].`.{                   ",
"                        `.`.`.`._.C e k.V.V.N.x.N.V.N.V.x.e.K.w.M.x.j.w.w.z.n.N.N.S.M.M.M.,.:.q w ^.@X@X@X@X                    ",
"                        (.(.(.(.~.C i j.V.N.S.n.N.B.B.S.M.B.V.N.S.M.B.B.B.N.M.G.N.N.M.N.M.u.<.r w ^.@XOXOXOX                    ",
"                        {.{.{.'.^.M u j.J.D.D.M.S.G.G.D.F.D.D.G.S.M.J.J.J.N.M.J.G.D.n.D.M.,.t.r % Q..XXXXXXX                    ",
"                  %X@X+X+X+X#X@X$X~ w a h l A A D R R E R W W.J.D.M.H.W.I.R R E R D A A j 0 9 $ M _.'.'.'.'.[.[.|.              ",
"                  OXOXOXOXOXOXOX+X' u * = * * - - - m u n H L A.J.S.G.W H H n n b - v * & . . # i !.(.(.(.(.(.(._.              ",
"                  XXOXOXOXXXOXOXXXU * h 7.9.w.6.9.Z.C.w.9.C.A.J.D.D.H.D.Z.9.9.Z.w.9.6.8.6.c 0 $ w _ (.(.(.^.(.(._.              ",
"               X.X{.[.{.|._._.].'.! w Y.H.H.H.M.J.H.H.H.M.H.H.H.F.F.H.H.H.S.D.H.H.H.M.J.S.v.t.$ u _ !.!.} _.].`.'.{.|.          ",
"            `._.(._.(.(.]._ _ _ _ ! B E T.T.Y.P.U.T.T.R.E.R.R.R.E.R.R.R.R.E.P.U.U.U.P.Y.Y.l j e u ( _ ] _ } _._.`.(._.'.        ",
"              _.(._._._.~.{ ` _ _ ' /.^.^.^.^.`.`._.[. X.X.X X.X.X.X.X XXX.X|._.`.`.`.).`.^.^./.` _ { { { ] ~._.(.(.(.^.        ",
"              _.`.'.[.]._._.{ [ _ { { { Q.Q.Q.!.{ } _.].].].'.`.`._._.'.'.].[.[.'.'.'.'.'.'.'.'.'.`._.'._.{ ~.(.~.!.}           ",
"                                                                                                                                ",
"                                                                                                                                ",
"                                                                                                                                ",
"                                                                                                                                ",
"                                                                                                                                ",
"                                                                                                                                ",
"                                                                                                                                ",
"                                                                                                                                ",
"                                                                                                                                ",
"                                                                                                                                ",
"                                                                                                                                ",
"                                                                                                                                ",
"                                                                                                                                ",
"                                                                                                                                ",
"                                                                                                                                ",
"                                                                                                                                "
};
