/* XPM */
static char *_df404f28beb4977d66fd2027a25aef4DLuteHoFichqxobE[] = {
/* columns rows colors chars-per-pixel */
"64 64 220 2 ",
"   c None",
".  c #42140C",
"X  c #451310",
"o  c #461311",
"O  c #461411",
"+  c #451513",
"@  c #461412",
"#  c #451514",
"$  c #461514",
"%  c #461515",
"&  c #451714",
"*  c #451615",
"=  c #451715",
"-  c #461614",
";  c #461615",
":  c #451717",
">  c #461716",
",  c #471716",
"<  c #461717",
"1  c #471717",
"2  c #451815",
"3  c #471817",
"4  c #4D1D14",
"5  c #4C1C15",
"6  c #4E1D14",
"7  c #4E1E14",
"8  c #4C1D17",
"9  c #4C1E17",
"0  c #441518",
"q  c #451518",
"w  c #451618",
"e  c #451718",
"r  c #461718",
"t  c #4A161A",
"y  c #461818",
"u  c #471818",
"i  c #471919",
"p  c #47191A",
"a  c #471A1A",
"s  c #481918",
"d  c #491A18",
"f  c #481A1B",
"g  c #4B1C18",
"h  c #49181C",
"j  c #49191C",
"k  c #4A181C",
"l  c #481A1C",
"z  c #481B1C",
"x  c #481C1E",
"c  c #481C1F",
"v  c #501F13",
"b  c #4F2117",
"n  c #552513",
"m  c #512114",
"M  c #502117",
"N  c #522317",
"B  c #532517",
"V  c #542616",
"C  c #572816",
"Z  c #5E2F12",
"A  c #5F2F12",
"S  c #582916",
"D  c #5A2B16",
"F  c #5E2F15",
"G  c #5E3015",
"H  c #491D20",
"J  c #491E21",
"K  c #491F22",
"L  c #491F23",
"P  c #5F1335",
"I  c #492024",
"U  c #4A2025",
"Y  c #4A2228",
"T  c #4A2329",
"R  c #4B232A",
"E  c #4B252C",
"W  c #4B262E",
"Q  c #4C2730",
"!  c #4D2C36",
"~  c #4D2C37",
"^  c #4E2F3D",
"/  c #552237",
"(  c #4F3443",
")  c #4E3345",
"_  c #4F3445",
"`  c #503445",
"'  c #503545",
"]  c #51394C",
"[  c #523B50",
"{  c #533E54",
"}  c #533F56",
"|  c #504051",
" . c #534056",
".. c #54435B",
"X. c #524459",
"o. c #54435C",
"O. c #55445C",
"+. c #55445D",
"@. c #55455E",
"#. c #554660",
"$. c #564965",
"%. c #564C69",
"&. c #585070",
"*. c #595374",
"=. c #5A577A",
"-. c #5B577A",
";. c #5B5A7F",
":. c #875A11",
">. c #9F730E",
",. c #916410",
"<. c #A3770D",
"1. c #AB7E0D",
"2. c #970B79",
"3. c #AD810C",
"4. c #B0840C",
"5. c #B5890B",
"6. c #BB8F0B",
"7. c #C1950A",
"8. c #C3980A",
"9. c #D9AE07",
"0. c #DAAF07",
"q. c #D0A508",
"w. c #D7AC08",
"e. c #DEB307",
"r. c #EEC305",
"t. c #EFC505",
"y. c #F0C605",
"u. c #F1C705",
"i. c #5C5A80",
"p. c #5C5C82",
"a. c #5D5D84",
"s. c #715597",
"d. c #5F6B97",
"f. c #606A97",
"g. c #606A98",
"h. c #606B99",
"j. c #616B9A",
"k. c #626A9A",
"l. c #616C9A",
"z. c #616C9B",
"x. c #616C9C",
"c. c #616D9C",
"v. c #616D9D",
"b. c #626C9D",
"n. c #626E9E",
"m. c #626E9F",
"M. c #6B69A5",
"N. c #6270A2",
"B. c #6371A3",
"V. c #6374A7",
"C. c #6578AE",
"Z. c #7C67BB",
"A. c #677FB8",
"S. c #AA0E97",
"D. c #862A84",
"F. c #942997",
"G. c #AB26B3",
"H. c #AA2EBB",
"J. c #CB05BC",
"K. c #C60BBB",
"L. c #934ABB",
"P. c #EE00E7",
"I. c magenta",
"U. c #FA06FF",
"Y. c #FD06FF",
"T. c #D337FF",
"R. c #D537FF",
"E. c #A55BE7",
"W. c #B35FFF",
"Q. c #AA60F4",
"!. c #B062FF",
"~. c #B063FF",
"^. c #B460FF",
"/. c #B064FF",
"(. c #6780BA",
"). c #6781BB",
"_. c #6682BB",
"`. c #6882BE",
"'. c #6986C4",
"]. c #6A87C6",
"[. c #6A89C8",
"{. c #6A8ACA",
"}. c #6B8DCE",
"|. c #6C8DCF",
" X c #6C8ED0",
".X c #6C8FD1",
"XX c #6C8FD2",
"oX c #6D92D6",
"OX c #6D93D8",
"+X c #6D94D9",
"@X c #6D9DE4",
"#X c #719FEA",
"$X c #72A2EF",
"%X c #72A3F1",
"&X c #73A5F4",
"*X c #73A5F5",
"=X c #73A6F5",
"-X c #71A9F6",
";X c #74AAFB",
":X c #75ABFD",
">X c #72ADFC",
",X c #72AEFD",
"<X c #72AEFE",
"1X c #73AEFF",
"2X c #73AFFF",
"3X c #75ACFF",
"4X c #74ADFF",
"5X c #75ADFF",
"6X c #77ADFF",
"7X c #76AEFF",
"8X c #76AFFF",
"9X c #78AFFF",
"0X c #75B0FF",
"qX c #74B1FF",
"wX c #76B0FF",
"eX c #76B1FF",
"rX c #77B1FF",
"tX c #77B2FF",
"yX c #9288FF",
"uX c #9489FF",
/* pixels */
"                                                                                                                                ",
"                                                                                                                                ",
"                                                                                                                                ",
"                                      u u u u u u u u u u u u u u u u u u u u u u                                               ",
"                                      u u u u u u u u u u u u u u u u u u u u u u u                                             ",
"                                  u u u u u u u u u u u u u u u u u u u u u u u u u u u                                         ",
"                                u u u u u u u u u u u u u u u u u u u u u u u u u u u u                                         ",
"                            u u u u u u u u u u u u u u u u u u u u u u u u u u u u u u u u u                                   ",
"                            u u u u u u u u u u u u u u u u u u u u u u u u u u u u u u u u u                                   ",
"                      u u u u u u u u u u u u u u u u u u u u u u u u u u u u u u u u u u u u u u                               ",
"                      u u u u u u u u u u u u u u u u u u u u u u u u u u u u u u u u u u u u u u                               ",
"                  u u u u u u u u u u u u u u u u u u u u u u u u u u u u u u u u u u u u u u u u                               ",
"                  u u u u u u u u u u u u u u u u u u u u u u u u u u u u u u u u u u u u u u u u u                             ",
"                  u u u u u u u u u u u u u u u u u u u u u u u u u u u u u u u u u u u u u u u u u u u                         ",
"                  u u u u u u u u u u u u u u u u u u u u u u u u u u u u u u u u u u u u u u u u u u u                         ",
"                  u u u u u u u u u u u u u u u u u u u u u u u u u u u u u u u u u u u u u u u u u u u                         ",
"              u u u u u u u u u u u u u u u u u u u u u u u u u u u u u u u u u u u u u u u u u u u u u                         ",
"            u u u u u u u u u u u u u u u u u u u u u u u u u u u u u u u u u u u u u u u u u u u u u u                         ",
"            u u u u u u u u u u u u u u u u u u u u u u u u u u u u u u u u u u u u u u u u u u u u u u u u                     ",
"            u u u u u u u u u u u u u u u u u u u u u u u u u u u u u u u u u u u u u u u u u u u u u u u u                     ",
"            u u u u u u u u u u u u u u u u u u u u u u u u u u u u u u u u u u u u u u u u u u u u u u u u                     ",
"            u u u u u u u u u u u u u u u u u u u u u u u u u u u u u u u u u u u u u u u u u u u u u u u u                     ",
"            u u u u u u u u u u u u u u u u u u u u u u u u u u u u u u u u u u u u u u u u u u u u u u u u                     ",
"            u u u u u u u u u u u u u u u u u u u u u u u u u u u u u u u u u u u u u u u u u u u u u u u u                     ",
"            u u u u u u u u u u u u u u u u u u u u u u u u u u u u u u u u u u u u u u u u u u u u u u u u                     ",
"            u u u u u u u u u u u u u u u u u u u u u u u u u u u u u u u u u u u u u u u u u u u u u u u u                     ",
"            u u u u u u u u u u u u u u u u u u u u u u u u u u u u u u u u u u u u u u u u u u u u u u u u                     ",
"            u u u u u u u u u u u u u u u u u u u u u u u u u u u u u u u u u u u u u u u u u u u u u u u u                     ",
"            u u u u u u u u u u u u u u u u u u u u u u u u u u u u u u u u u u u u u u u u u u u u u u u u                     ",
"                  u u u     u u u u u u u u u u u u s q q u q : u u u u u u u u u u u u u u u     u u u                         ",
"                  u u       u u u u u u u u u u u u g M b b M g u u u u u u u u u u u u u u u     u u u                         ",
"                            u u u               u q :.9.w.w.e.<.u u                                                             ",
"                            q s                 : : ,.t.r.r.y.4.u u                                                             ",
"                                      u s : : : : : M A A A A n : : + : :                                                       ",
"                                      3 1 E _ _ ` ` ) ) ) ) ) ) ` ' ' ' `                                                       ",
"                            $ 1 : s 1 : @ p.&X%X%X$X%X%X%X%X%X%X$X%X%X&XC.$ : 1 1 1 1 +                                         ",
"                            +.+.! 1 H  .o.C.8X8X8X8X3X3X8X8X3X8X,X8X8X8X[.+...R 1 E +.+.                                        ",
"                      + + ^ $XqXi.@ ! @X,X,X,X8X8X,X,X,XqX,X,X,X,X8X,X,X,X>X-X| . X.;X3X#.. :                                   ",
"                      %.-.i.l.b.{ + / E././.!./.!./.!.!.!./.!.!.!.!.!././.!.!.G.2.D.b.b.a.-.&.                                  ",
"                  s 3 V.tX+XT + 3 : P P.I.I.I.I.I.I.I.I.I.I.I.I.I.I.I.I.I.I.I.I.I.J.t s ).tX{.H s                               ",
"                  u : B.qXOXY 3 +.l.M.Q.W.W.W.W.W.W.W.W.W.W.W.W.W.W.W.W.W.W.W.W.W.L.h u _.qX].c s                               ",
"                  u 1 N.9XoXY : k.9X9X,X3X,X8X3X,X3X3X,X,X3X,X3X8X,X8X3X3X3X,X3X8X_.x h A.8X'.c q                               ",
"                  u u _ $.} c + F.R.R.T.T.T.T.T.T.T.T.T.T.T.T.T.T.T.T.T.T.T.T.T.R.H.h u ] $.] a s                               ",
"                  u u g v 6 s 3 S.Y.U.U.U.U.U.U.U.U.U.U.U.U.U.U.U.U.U.U.U.U.U.U.Y.K.h u 4 m b 3 s                               ",
"                  u u >.e.7.N : s.yXyXyXyXyXyXyXyXyXyXyXyXyXyXyXyXyXyXyXyXyXyXyXuXZ.l s 3.e.5.g u                               ",
"                  u u 1.y.q.n + l.,X,X3X,X,X8X,X8X,X3X,X,X,X8X,X,X,X8X,X,X,X8X,XqX_.l g 6.u.8.g u                               ",
"                  u u n F D 3 1 d.8X3X3X3X3X3X3X3X3X3X3X8X8X8X8X8X3X3X3X3X3X3X3XqX).h u C G C u u                               ",
"                  u u u q q 1 : f.8X3X3X3X3X3X3X3X8X#X|. X X|.XX XXX&X3X3X3X3X3X8X).h u u 0 u u u                               ",
"                            s : f.8X8X3X3X3X3X3X3X8Xb.H I I U I I Q }.8X3X3X3X3X8X_.h u                                         ",
"                            1 : f.9X3X3X3X3X3X8X3X8Xd.: 1 : t 3 : H }.8X3X3X3X8X8X_.l u                                         ",
"                            1 1 l.qX9XqX8X8X8X8X9XqXk.: u       3 I oXqX8X8X8X8XtX`.c 3                                         ",
"                            1 1 #.l.k.k.k.k.k.d.k.b.#.: u       s c ;.k.k.k.l.k.x.*.u u                                         ",
"                            s t 3 : 1 1 1 1 : 3 3 : 3 u u       q u : 1 : : 1 1 1 1 3 s                                         ",
"                                    : 3 3 3 3 u 3 3 u u u       s s 3 3 u u 3 :                                                 ",
"                                      u 3 s u u 3 3 3 u u       u u s t u u u                                                   ",
"                                  u u 3 3 t u u s t u u u       u u 3 3 u u u u u u u u                                         ",
"                                u u u u u u u u u u u u u       u u u u u u u u u u u u                                         ",
"                                                                                                                                ",
"                                                                                                                                ",
"                                                                                                                                ",
"                                                                                                                                ",
"                                                                                                                                ",
"                                                                                                                                ",
"                                                                                                                                "
};
