/* XPM */
static char *_a493c937c284b30b1074841624219866zUCrDWIMpG5SpcT[] = {
/* columns rows colors chars-per-pixel */
"64 64 135 2 ",
"   c None",
".  c #3F1019",
"X  c #44130E",
"o  c #461514",
"O  c #451815",
"+  c #4D1E17",
"@  c #441518",
"#  c #471818",
"$  c #481919",
"%  c #4C131E",
"&  c #4F2017",
"*  c #522317",
"=  c #572816",
"-  c #5B2D16",
";  c #5E3015",
":  c #622C1E",
">  c #623314",
",  c #673914",
"<  c #693B14",
"1  c #461B22",
"2  c #481E21",
"3  c #5A1432",
"4  c #4A2126",
"5  c #49232D",
"6  c #4C2933",
"7  c #4B2B3B",
"8  c #512433",
"9  c #4F313F",
"0  c #7E3D28",
"q  c #6F4113",
"w  c #724412",
"e  c #7A4C12",
"r  c #7F5112",
"t  c #731754",
"y  c #751758",
"u  c #7A1258",
"i  c #711C58",
"p  c #5E2244",
"a  c #4F3343",
"s  c #4F3549",
"d  c #503444",
"f  c #523B4F",
"g  c #523C50",
"h  c #5E3458",
"j  c #563E58",
"k  c #692758",
"l  c #7B1D67",
"z  c #712A67",
"x  c #633B67",
"c  c #544158",
"v  c #5B4567",
"b  c #574B67",
"n  c #594867",
"m  c #574C69",
"M  c #584E6D",
"N  c #5A5476",
"B  c #5B597E",
"V  c #825511",
"C  c #875A11",
"Z  c #895C10",
"A  c #93660E",
"S  c #95680F",
"D  c #996D0F",
"F  c #9F720E",
"G  c #8E6110",
"H  c #906718",
"J  c #A0740E",
"K  c #A77B0D",
"L  c #8D6720",
"P  c #831467",
"I  c #AD800C",
"U  c #B2860C",
"Y  c #B68A0B",
"T  c #BA8E0B",
"R  c #BD920B",
"E  c #C69B09",
"W  c #C99D09",
"Q  c #D8AD07",
"!  c #D2A708",
"~  c #D5AA08",
"^  c #DCB107",
"/  c #E4BA06",
"(  c #E9BE06",
")  c #EDC205",
"_  c #F0C605",
"`  c #F5CA04",
"'  c #F8CE04",
"]  c #FFD503",
"[  c #FFD803",
"{  c #5D5D83",
"}  c #68588E",
"|  c #625684",
" . c #5F6691",
".. c #5F6894",
"X. c #686E8E",
"o. c #6B6D84",
"O. c #616D9E",
"+. c #6579AF",
"@. c #6F6EB2",
"#. c #6975B0",
"$. c #657AB1",
"%. c #677FB8",
"&. c #B516B0",
"*. c #AC22B0",
"=. c #C90CB3",
"-. c #D603C9",
";. c #DB15E4",
":. c #E804E3",
">. c #FC02FD",
",. c #EE14FE",
"<. c #F216FF",
"1. c #DE27FC",
"2. c #E127FF",
"3. c #B64EF0",
"4. c #BA49F1",
"5. c #BF4BFA",
"6. c #9072E4",
"7. c #997EFE",
"8. c #C24DFF",
"9. c #6986C3",
"0. c #6888C4",
"q. c #6A8ACA",
"w. c #6E93D9",
"e. c #7B8DE4",
"r. c #6F9AE3",
"t. c #7792E4",
"y. c #709CE6",
"u. c #719EE9",
"i. c #72A5F4",
"p. c #7AA5FE",
"a. c #75ADFE",
"s. c #7CA8FF",
"d. c #76B0FF",
"f. c #9880FF",
"g. c #829CFE",
/* pixels */
"                                                                                                                                ",
"                                                                                                                                ",
"                                                                                                                                ",
"                                                                                                                                ",
"                                                                                                                                ",
"                                                  # # # # # # # # # # # # # # # # # $ @ # # #                                   ",
"                                                # # # # # # # # # # # # # # # # # # # $ # # #                                   ",
"                                      # # # # # # # # # # # # # # # # # # # # # # # # @ $ # # # $ #                             ",
"                                      # # # # # # # # # # # # # # # # $ o $ # # # # # # @ $ o # # #                             ",
"                                  # # # # # # # # # # # # # # # # # $ @ $ $ # # # # $ @ $ # $ # $ # # #                         ",
"                                # # # # # # # # # # # # # # # # # # # # $ @ $ o # # $ o # # # # @ $ # # #                       ",
"                            # # # # # # # # # # # # # # # # # # # # # # $ @ $ $ # # # $ # # # # # # # $ @ $ #                   ",
"                            # # # # # # # # # # # # # # # # # # $ @ $ $ @ $ $ O # # # # # # # # # # # # # # #                   ",
"                            # # # # # # # # # # # # # # # # # # # $ o $ @ $ @ $ # # # # # # # # # # @ $ # # #                   ",
"                            # # # # # # @ , T T q @ ; Y R r @ @ # $ $ O $ $ # $ # # # # # # # # # # $ # @ $ # # #               ",
"                            # # # # # # @ e ] [ C @ < ` [ J & * $ @ @ $ $ o # @ # # # # # # # # # # # # $ # # # # #             ",
"                                  # $ # @ e ] ] C . , _ [ ) Q W = o @ $ @ $ $ $ $ o $ $ $ $ $ o # @ $ @ # $ o # $ #             ",
"                                  # $ - > G ' ] D > V ` ] ] [ ) > @ $ $ $ $ @ @ $ $ @ @ @ @ $ $ # $ $ $ # # # # # #             ",
"                                  # + E _ ` ] ] ` _ _ ] ] ] ] ] q @ $ @ O @ @ @ @ @ $ $ $ @ $ O # # o $ # # $ @ # #             ",
"                                  # + ! [ ] ] ] ] ] ] ] ] ] ] ]   @ $ o $ V V e V r = o $ O @ $ # # # # # # # $ # #             ",
"                                  # + ! [ ] ] ] ] ] ] ] ] ] ] ]           ] ] ] ] ` e @ # # # # # # @ $ O $ # # # #             ",
"                                  # + ~ ] ] ] ] ] ] ] ] ] ] ] ]         ] ] ] ] ] ' e @ # # # # # # $ # $ o # # # #             ",
"                                  $ * ( [ ]           ] ] ] ] ]       ] ] ] ] ] ] ] e @ @ $ $ @ # # # # $ o $ $ # #             ",
"                            @ @ S ^ / ] ] ] ] ] ] ] ] ] ] ] ] ]       ] ] ] [ ! V V = @ $ $ o $ # # # # @ $ $ @ # #             ",
"                            # @ G ] ] ] ] ] ] ] ] ] ] ] ] ] ] ]       ] ] ] ` Y @ @ @ $ $ @ @ $ # # # # # # # # # #             ",
"                            # @ G ] ] ] ] ] ] ] ] ] ] ] ] ] ] ] ] ] ] [ ] Z , - # # $ @ $ $ $ $ # # # # # # # # # #             ",
"                            # @ Z [ ] ] ] ] ] ] ] ] ] ] ] ] ] ] ] ] _ ^ ~ > @ @ # # # # @ @ $ o # # # # # # # # #               ",
"                            # # &           ] ] ] ] ] ] ] ] ] ] ] [ U * * $ # # # # # # $ $ O $ # # # # # # #                   ",
"                            # # #         ] ] ] ] ] ] ] ] ] ] ] ] [ K @ # # # # # # # # # # # # # # # # # # #                   ",
"                                  # * _ [ [ ] ] ] [ [ ] ] [ [ ] ] [ I @ @ # # # # # # # # # # # # #     # # #                   ",
"                                      K J F F F F F F F F F F U ] ] Q K J - # # # # #   # # # #                                 ",
"                                      @ @ @ @ @ @ @ @ @ @ @ @ - ( ] [ [ ` < @ # # #       # #                                   ",
"                                                          @ o - ) ] [ [ ` < @ #                                                 ",
"                                                          $ $ - ^ ) ) _ ( , @ #                                                 ",
"                                                          $ $ $ ; > > > ; + # #                                                 ",
"                                                          $ $ $ # @ 5 s a 4 # @                                                 ",
"                                                      @ @ o o o o X N i.r.a o # O o                                             ",
"                                                      M M M M M M M +.a.i.a o 6 m m a                                           ",
"                                                # o d i.d.a.a.a.a.d.a.a.i.d X b a.a.c o #                                       ",
"                                                # o p 4.8.8.8.3.} B %.a.i.d o z 8.5.k @ #                                       ",
"                                                # # t >.>.>.>.:.3 X B a.i.a o P >.>.u o #                                       ",
"                                            # # O.9.t.7.7.7.f.6.8 o B a.i.a X x 7.7.h o #                                       ",
"                                            # # @.g.g.g.g.g.g.t.6 o N u.w.a X v g.p.j o #                                       ",
"                                            # $ &.<.,.<.,.,.<.;.3 @ 2 6 6 $ o l ,.,.t o #                                       ",
"                                            # $ *.2.2.2.2.;.-.=.0 w w w < * o l 1.1.i O #                                       ",
"                                            # # #.s.s.s.p.| % : / ] ` ] ) < o n p.i.j o #                                       ",
"                                            # # +.a.a.a.a.B o - ( [ ] ] ` < @ b p.a.j o #                                       ",
"                                            # # $.d.a.a.a.B X - ( ] ] ] ` < o n a.i.j @ #                                       ",
"                                                m N  .i.a.q.+.X.L A A A H o.O.9.a.i.c O #                                       ",
"                                                o o a u.i.a.a.y.7 @ 1 $ 5 w.d.a.i.i.c # #                                       ",
"                                                      f f $.d.a.q.q.q.q.q.i.d.9.c f                                             ",
"                                                      @ o { y.w.y.u.y.y.y.y.y.O.O @                                             ",
"                                                      $ # 4 6 6 6 6 6 6 6 6 6 4 $ $                                             ",
"                                                      # $ @ $ @ @ @ o $ $ o o $ $ @                                             ",
"                                                          # # # # # $ # $ @ $ @                                                 ",
"                                                          # # # # # # # $ @ $ $                                                 ",
"                                                      # # # # # # # # # # $ @ $                                                 ",
"                                                                                                                                ",
"                                                                                                                                ",
"                                                                                                                                ",
"                                                                                                                                ",
"                                                                                                                                ",
"                                                                                                                                ",
"                                                                                                                                "
};
