/* XPM */
static char *e09d53759a344c47df40ec0b359afe1bVrb2AMUSDibBKvTl[] = {
/* columns rows colors chars-per-pixel */
"64 64 157 2 ",
"   c #235600",
".  c #255A00",
"X  c #2A5E00",
"o  c #2E6200",
"O  c #326502",
"+  c #356A04",
"@  c #396D06",
"#  c #336608",
"$  c #38670B",
"%  c #376909",
"&  c #3A6D0B",
"*  c #3D7207",
"=  c #3E720C",
"-  c #3C6F11",
";  c #3F7211",
":  c #407607",
">  c #41750E",
",  c #44790F",
"<  c #497D0E",
"1  c #427513",
"2  c #457A14",
"3  c #497E16",
"4  c #447719",
"5  c #467A1A",
"6  c #4A7E1A",
"7  c #4C7E21",
"8  c #4C8116",
"9  c #4D821C",
"0  c #518517",
"q  c #51851D",
"w  c #54891E",
"e  c #4E8221",
"r  c #528622",
"t  c #558A24",
"y  c #598D25",
"u  c #548729",
"i  c #568A29",
"p  c #5A8D2A",
"a  c #5C9126",
"s  c #5D922B",
"d  c #5B8E30",
"f  c #5E9232",
"g  c #609627",
"h  c #61962D",
"j  c #64992D",
"k  c #689E2F",
"l  c #629532",
"z  c #659A33",
"x  c #699D35",
"c  c #649638",
"v  c #679B39",
"b  c #6A9D3A",
"n  c #6CA236",
"m  c #6DA23C",
"M  c #70A637",
"N  c #71A53D",
"B  c #74A93E",
"V  c #79AF3F",
"C  c #6D9E40",
"Z  c #6EA142",
"A  c #72A542",
"S  c #77AC44",
"D  c #77AE46",
"F  c #75AA43",
"G  c #79AF40",
"H  c #79AE44",
"J  c #7AAF45",
"K  c #78AC47",
"L  c #79AE46",
"P  c #79AE45",
"I  c #73A648",
"U  c #77A948",
"Y  c #77A94A",
"T  c #76AA4A",
"R  c #79AB48",
"E  c #79AD48",
"W  c #7BAF4B",
"Q  c #7AA94D",
"!  c #7AAD4A",
"~  c #7CB147",
"^  c #7CB145",
"/  c #7CB149",
"(  c #7DB24A",
")  c #7FB44A",
"_  c #7DB14D",
"`  c #7CB04C",
"'  c #7EB24D",
"]  c #7FB34F",
"[  c #7DB24B",
"{  c #7EAD51",
"}  c #7BAE51",
"|  c #7EB153",
" . c #80B54D",
".. c #81B64C",
"X. c #81B64E",
"o. c #81B54D",
"O. c #84B94E",
"+. c #80B253",
"@. c #81B550",
"#. c #81B354",
"$. c #83B554",
"%. c #84B657",
"&. c #82B552",
"*. c #81B850",
"=. c #83B850",
"-. c #84B951",
";. c #84B853",
":. c #85BA52",
">. c #84BB53",
",. c #86BB53",
"<. c #85B954",
"1. c #87BB57",
"2. c #87BC54",
"3. c #85BC56",
"4. c #85BA53",
"5. c #88BD51",
"6. c #88BD53",
"7. c #89BE54",
"8. c #89BE56",
"9. c #89BD55",
"0. c #84B758",
"q. c #88B75B",
"w. c #87B95A",
"e. c #86B95A",
"r. c #8ABD5A",
"t. c #90BF5F",
"y. c #8CC156",
"u. c #8BC058",
"i. c #8CC159",
"p. c #8CC05B",
"a. c #8AC25D",
"s. c #8EC25D",
"d. c #8FC45C",
"f. c #8DC25B",
"g. c #90C456",
"h. c #91C65E",
"j. c #91C55D",
"k. c #93C85D",
"l. c #98CC5D",
"z. c #8EC162",
"x. c #92C663",
"c. c #96CA63",
"v. c #98CC64",
"b. c #94C76A",
"n. c #97CB69",
"m. c #9ACD6B",
"M. c #9BD065",
"N. c #9ED36B",
"B. c #9FD46C",
"V. c #9DD26B",
"C. c #9ED270",
"Z. c #A1D66D",
"A. c #A4D96F",
"S. c #A1D572",
"D. c #A6DB73",
"F. c #A5D973",
"G. c #ACDF78",
/* pixels */
"i f f , x *.*.t g @ @ 2 o o 4 % 4 p r @ 9 g j M V M n q + 3 p t 9 9 p a Z w * X 8 q N a.s p r 1 i 0.0.3 6 3 e e ] t 1 f W T f 9 ",
"+ f n f s 3.D n M t ; t Z m v 3.5 9 4 2 q w 0 w a w w , m j f i m v a = w m G s M , 8 N D 9 5 p a z t 5 / f 1 8 c s r t s s z r.",
"m 6 , v 9 h k k 3.k ; q T | } a.& e t 6 3 w w 8 n y a j F m v e i D D p 2 m 2.) >.s 9 s a.j 9 9 9 f 8 2 T t o 3 3 n m s r 5 r ] ",
"a.e , 9 h , 9 g a.t + . X u Z u t t p r 9 a h w y.h B D.i m A t 9 A :.X.i n N Z N.D n n f.) z 9 9 | m + 1 t r 6 . v b e 9 2 & 9 ",
"= v m t D y w D B.m s i ; e } | $.h 9 t j m N n w * t y.* 6 q = s a 3 8 , a 3 o a.s 9 f w t w 8 s.e ; l p 5 p ] 6 4.) u l Z z n ",
"X 9 Z 3.h m D *.s s z T Z ; ; T v A m p s H 8.2.H M n h n i i z a.*.y 9 z >.z ; | D D ( t F m ; s s s 9 + A | 9 6 E Z 2 2 9 9 u ",
"s ; d *.q x D j a s v 3.z.f 5 d p ] @.n z G / 8.) ) z 2 / s i m A ) n s 2./ s t s D ] F m y.F O 3 9 z m 9 m n 8 s m z t 2 = 8 z ",
"t D v , m v t q k.z s Z T b.| e h.T z 2.V.z 8 m 2 9 9 t n v t t t a a z z.i & t 9 r p t y.) M 0 z & 3 F.B.v 9 T m s t p t 9 Z C.",
"e m f o B h j  .O 8 9 y c 4 $ p p * O * D 2.] p z.v w t 2 + r ) a q , t F i 2 f ` | u.z ] s a t A r z h.x./ z a 9 p w 9 w 2 w *.",
"i m D F V.m q j z 8 l v 1 1 p 4 / 8 o 8 a f.u.z F n m *.z a 9 8 ^ 8 8 s z e s c e r.F.F w , 0 0 ^ G F F ( d./ , a 2 t N N F m a ",
"5 m ] F A z h j s z D v 4 7 c 7 n.t * m 2 T r.| i f m Z a N n 8 j n j a F t f z.e D z.2.a 8 w k B B B n n B n 8 9 z ^ s a 5.:.* ",
". m n O . -.M.n 2 n m 9 6 c C i y.q 9 k.z l z F 9 z s & 9 ^ y.G w ) ^ a | f d e.5 i v T g.^ V l.y y a s a y t w q y.V * w *.G q ",
"n.z 9 N t q 3 q 7 y 7 : $ v C > s 0 s :.y.f 9 f 9 ` m o n ^ ) ^ V g j g n i e ; u Q ` i O.j a M n y.y.y.O.>.O.^ :.N , * m O.n s ",
"p f Z D y m n q a ..U 7 6 u 7 $ * n ..s A e u ` 9 F Z * m k s k V 0 * y y 2 % ; o 5 e 2 y.j a V w O.M.y.B j m y.A.j : 2 t m N w ",
"e i D a.x a h a k 9.o.s f i 7 i = B ) w z 9 s 0.1 p u t a q 8 a M M 8 a y s 7 I 7 # - f d.n y n * D d.G h a j ^ V s y q : w h 8 ",
"D 2 s V.t.y 3 h m.h 7 t 4 b t.m 8 w a s *.p ; 9 5 6 9 D 9 9 , s k.V M ) t a.x.I d 5 p D V M k 0 O F N @ 9 :./ , O 9 a k m q * 8 ",
"t u t 9 v 6 i *.7 6 j o.j M V a 7 5.M $ g.R 7 7 s.n.E p t t 9 l 8 * w x.n D x r 8 f z = s M ) D 2 & q z ) a z :.^ z n j a G ) q ",
"e = ; f d u u f 7 c q.5.< < 6 7 6 t.t.C t.7 < < s N v i l z p u 3.w t M.9 y t r >.>.w , 8 B s y ] D Z t i 9 b 0.z 8 8 ) , y.>.9 ",
"y 9 9 f 1 i d u < B q.Q < a a < < Q O.B C 7 < 7 i m m a s h p 9 D t t y.n x a w B z y w @ r r = F m n f v z m A 9 9 9 y q n n w ",
"m y 9 f 9 e 1 # $ 7 7 7 7 C j < 7 j 7 a 6 < 6 j x.b.a.n l q t a , * y F a.f s B = 8 s y f 8 q 8 s r f ] *.Z F ` * t s y n w q y ",
"v.B n ) c.s % - $ $ < l 7 7 7 7 a 7 7 f > 6 1 7 @.A j 2 q * * 2 8 = p >.j = f c.f D s 8 a.B 0 p 9 ; 5 i 2 ; r z 9 t a >.w M f a ",
"g m m t m 5 ; ; 7 7 7 7 7 B ..c 7 d 7 c $ 6 6 7 x s 9 3 O.n s s D x D k.+ f O.G k.( a s y D ( D f i t i 9 n n t B z w z w s j M ",
"a M M 8 & 8 s f C C c s 7 g.$.7 1 7 7 7 6 l x 7 a v a , c.O.n k M / a.d.t D ) p D n m n O s d.h.r 8 e z s | / s N m j 8 t * q ( ",
"l.j 8 f 8 9 e i m.C 7 $.h 6 > $ $ 7 c 7 b t.5.7 m c.O.8 k...k k y F M.) x.* 8 ( t y.>.9 j 0 f k.y r p m 2 s | v., q n d.* * w B ",
"< M V , R 7 6 7 j q.Z.q.$ 7 g.l.+.7 7 m.O r p t y y t w ..m M 5.k.f y B s >.G o F >.N O j y t r . F a.t y & i x.0 @ + y ) N a y ",
"g.k y M t.z 6 7 7 c b o.7 j h 6 b.c 7 7 u 4 5 l $.y w H M.a a g.n a s m F s f 3.i.c.a.f z 8 t f b m i 9 + N a.c.A n n ) a y./ 8 ",
"l.x w F U a > $ 7 6 6 l 7 7 6 6 C C +.d A u 6 6 f.l t x / w 8 n r p 8 r x.w * ) i.B m z w 8 s n m c i s 9 u.a.F F F ) k.q M N s ",
"N j w s 7 7 1 > C 7 7 c 7 6 6 7 1 c b.S.q.N r $ x t 3 3 9 8 q t * y 8 y B.( * @ D 2 = y 2 p a * s m f s F F n r 9 a n N M s n D ",
"s s t 7 z y f +.q.C x +.o.7 : < 4 4 l o.+.2 o : ! p h @.R m E s.s n y 0 8 D >.F h.F F y.z 2.) 8 F v s s f z s t @ q a j G ] ) M ",
"> b N 7 7 6 7 C h 7 a n o.< : a s m m t t.i t q.z 6 l s.m p z m 8 f ) a.s D O.f n D ( n @ m ) z c t f a.@ z m y 9 0 k k.t n n y ",
"X l +.b > > 4 7 < 6 7 7 n < < M 6 ..N 7 t. .m 5.y p W r.6 r u 2 p n / ] F A j 0 8 A F 8 o a ^ m ; 5 z z.o f Z 9 q 8 f y.= 9 0 q ",
"6 > 7 t.7 7 > 7 b c 7 h t.M 7 7 p 7 > z  .r.z 7 p p | r.1 5 u e r Z m p u.D s y 8 ( ] t t m z 1 3 8 3 2 o z m ; o 8 0 = a N n 9 ",
"8 s ) M.c.s r | ; t i - # e i i n.D i ; f u Z | C 7 C b.| I Z e e u d 5 f u e % r q f M y.M a w t w n ] 6 g j 7 a 6 > < $ ..O.7 ",
") M f n n 8 = z r 5 r Z f ; e } e e ; e f 5 % i e c I | C e.T u | f 7 # e ; e e 9 N V 8 8 M y.B 0 q 3 s x t > s $ k o.j > 7 M 7 ",
"y.a 8 8 q r r 9 r r f m f e i m o 9 f m e p i r d # u b.5 | e.e b.Z e - ; 9 i f 9 / y.z 8 n ) j N s , 3 B 6 + y < o.$.j 6 7 n k ",
"s 0 q 8 y y.( * 9 y e - ; f f 5 s 9 m a.f ] z.d I 4 d b.# Z } u I Z f ; - s a.x.t p F M.n n a w 8.n h 6 k 6 6 6 G.A < 7 g A B n ",
", 8 p i f a.x.q t e ; @ = y i 9 ] 9 t F 3.] D 9 ; Z f e o & # = e T C.x.f 9 ; * t 2 s u.z y r s l N F 1 z s b w t.c x t.6 $ 7 Z.",
"; @ 8 r i D c.] n Z m p r r y i m ) x = B x e 8 d v Z F ] s ; 2 - 8 m ( e = e m t t i y ; 5 t r & N U 6 q.x s N C < h F.$.j j B ",
"; O ; 9 9 d W u.B ] ] m p a i q 0 y.D = 9 a r y f + 9 ] h.f s f s , q D t 8 r f N z p ; 5 9 u 9 t s z m V.s 7 q.7 g C A l.t.A 7 ",
"9 e i i 9 9 t e m f s f s r 0 w a 8 a ) a w w 0 0 , - ; q ; s N.k.n 9 n t n s w x.f ; 5 Z s u d $.@ 6 j.M.6 y v.g q.o.  t.l.O.$ ",
"e s i 9 ; r r 5 2 s 3.n.y.F / h.B n s 0 n 0 8 w w 8 z B o O 9 ; s 0 j M.c.a 8 D 3.a 5 ; f e d u x $ $ j a q.v.l.t.o.R x 7 j l 6 ",
"z.f e y s A m p N f Z u.u.n s f a D y.V + 8 w 8 ; M >.d.) f q s n m j t s D m p f f b s f 5 ; 7 $ $ < 6 7 7 c $.7 A C 7 j 7 6 C ",
"3.y 5 q 8 ] ] 2 m i e n m s 8 ; j ) k.y.8 t a w i ) ] ) V.] s m n M B a r a s 2 ; F r.c f i u e 7 s a 7 o.< $ j < > 7 B n 7 6 7 ",
"y w i s # D D o y 9 ; ; ; ; ; 9 D y.k a y.y.p 8 u.m s r y.a.D 9 0 a *.*.s + 2 s 9 ] | i d v f r t.Q $ $ q.q.6 $ s 7 l C 7 7 k 7 ",
"s t B ] i n f = e y i 5 - ; ; ; 2 ) y.n y 9 8 x r D a.n e 9 m F 9 r A n p = y m s f s i s t ; 9 7 o.l $ $ s l 7 6 q.+.6 7 7 N o.",
"s j F M n m n = @ y Z F I f e o ( a w a.0 y 9 e f A f ; r y f f ) f 9 = f e 9 ; r 2 9 ] A r & 9 x 7 $ < $ c C x < 7 l c j 7 7 C ",
"w s n 8 n M f = + ; d D | T f u ( 9 8 h.e n s i ] x e i 9 u d s a.F p = m 9 & & 2 8 f u.F F s 2 C l l 7 6 7 c +.7 X < +.C 6 6 7 ",
"0 0 0 ; >.n s p e - @ 5 e d } C.* t s r 8 ) ( r B.e x n.e r Z t y a.i.2 n r s A ; f F F p h.] o < q.t.7 < 7 C +.7 7 7 7 7 $ < j ",
"y @ = z a.c.] s ) * ; D 8 8 G i.G w M A.0 M D y F a.B ; s r d _ y.y.k y N z 5 9 8 2.v.n a ..i.M 7 7 x 6 j 7 R v. .7 6 z O 7 h j ",
"8 8 9 s n F n 9 s s n y.) s a y.a a t a w 0 8 s z z / D t ; t y n a a 0 j v n * t 2 i a 8 M O.a j l j 6 7 $ < m t.o.x 7 1 7 y y ",
"; e i 8 9 s f 9 F n D a.y.k a s y w 8 , s m z 2 y w m ) s y a ; n w a 8 m z z + v 2 8 z a y g j Q M 7 < 7 7 6 <  . .b p b j 7 6 ",
"r r 8 + ; N B 8 a.n 0 * w y s y s 8 8 t n ( ( 8 9 F Z m s D x y n k.h 9 D.F = A z z j ^ i.k 0 V l.o.7 $ 1 < < 6 6 < 7  .t.t.7 o ",
"@ m 3.s o - f N @ w 8 = y.G 8 = r y ; r p t r D 8 / ] F y n z k a * a ..i j n 9 2 s s m k.O.j n > $ < +.+.7 3 7 v.y O 6 > B  .l ",
"m v f f x B z 9 8 r y t B ) G m - t i 9 ; s f f 8 9 n D r w a 0 a k ^ l.z 2.D e t e s a 9 n ^ a o.l j 7 g 7 7 3 c y x q.6 z m x ",
"D i i m D F f 9 p q M ] y A u.f - f Z e s ) u.i q ; y n n y w = s n B ) z 3.F & l t z s 2 s G w C C c j < 7 l 7 > s  .A 2 l U +.",
"Z e s A f ; 9 p q t f m q n n t s | T e z.n f n.s / B q B s 0 a 0 0 * 8 m Q f 6 9 9 s F d.d.n , < < z q.<   > +.p l 4   : b o. .",
"f p 5 ; r r 2 + x.f n a.w M n ; x.f & ; - Z m # F r 8 n ; ) / 8 k s w e p r 9 t r 6 t s D z s j > &.<.t r x v B 7 3 7 s  .j y 7 ",
"p ; f } e o = & m n f e r s y + C.m ; ; 9 u t 8 m.d 9 m 8 0 p n a = 9 y D s r ; z 5 = ; s 9 a G y b r + y U m l  .s 6 > 7 q m t.",
"f 9 d Z 5 # ; + A m f 2 9 f A Z Z Z Z f o e i e ] f 9 r e a f s n 0 r s B.Z 9 & F 5 & 2 s 8 s ..t c t @ u N s 6 m.m 3 > y q j  .",
"T Z u e s 9 % ; n.F s v * ] M.] + i | V.# f f @ q s n f ] D i o d.y.y 0 x.f - f i ; 1 e m t a m . N r.p @ & 6 y q.z r q x 6 7 l ",
"- e e u Q | } b.d.Z t f 5 y.>.t Z f s N 9 s p i x.] f ; d - e f x.y.r 9 q e e z.6 5 5 2 h t t 0 t t r 5 q y r 2 h t y t p > h t.",
"e Z Z e ; I | s l t 3 6 f f f D ; d n f x.s @ & a.Z i ; f ; - e n s f ] @ s } a.T I v 2 r r q 2 q q l N p & 5 x t 6 6 6 p 7 B Z.",
"; f v - % Z D ; t c s e a u n d.8 n N s n e ; ; Z f ; o u d e 5 8 t A | 9 m | I I Q m 5 t r q = y r l U h 1 4 h l 6 5 6 m l z m ",
"# e e u Q f 5 z v n.e.f + r.*.= c.n 9 / o 9 e d f f 7 - u e ; 5 9 F m 5 7 i f m # 1 6 = p q 2 O p t r q 6 q p t y 6 q r m p r r "
};
