/* XPM */
static char *_dd0f825375d46e68df36888fafe7f3aWG1QfXszOJrvTCTX[] = {
/* columns rows colors chars-per-pixel */
"64 64 126 2 ",
"   c None",
".  c #461615",
"X  c #451815",
"o  c #4D1E17",
"O  c #451518",
"+  c #471818",
"@  c #4A1B19",
"#  c #4E2017",
"$  c #532417",
"%  c #562816",
"&  c #5C2D16",
"*  c #5E3015",
"=  c #633515",
"-  c #673914",
";  c #6C3E14",
":  c #461B22",
">  c #531828",
",  c #5C1633",
"<  c #571C33",
"1  c #4A2126",
"2  c #4B242B",
"3  c #4C2933",
"4  c #502533",
"5  c #6F4114",
"6  c #724413",
"7  c #774913",
"8  c #7A4D12",
"9  c #7E623B",
"0  c #741554",
"q  c #751158",
"w  c #592844",
"e  c #4F3444",
"r  c #4F3948",
"t  c #503646",
"y  c #513749",
"u  c #51384B",
"i  c #5C3656",
"p  c #553D55",
"a  c #78337B",
"s  c #54445F",
"d  c #574A66",
"f  c #574B68",
"g  c #595375",
"h  c #5A587B",
"j  c #736C6F",
"k  c #885B0E",
"l  c #835511",
"z  c #875911",
"x  c #895B10",
"c  c #93660F",
"v  c #96690F",
"b  c #9A6E0F",
"n  c #9E710E",
"m  c #8E6110",
"M  c #916410",
"N  c #A2760E",
"B  c #A67A0D",
"V  c #AB7F0D",
"C  c #97453A",
"Z  c #AE820C",
"A  c #BB8F0B",
"S  c #BE920A",
"D  c #C1950A",
"F  c #C79B09",
"G  c #C99D09",
"H  c #CDA209",
"J  c #D1A508",
"K  c #D6AB08",
"L  c #DCB107",
"P  c #E1B706",
"I  c #E4B906",
"U  c #E8BE06",
"Y  c #EBC105",
"T  c #F1C705",
"R  c #F5CB04",
"E  c #F9CE04",
"W  c #FFD503",
"Q  c #FFD903",
"!  c #675E94",
"~  c #705394",
"^  c #5F648F",
"/  c #5F6691",
"(  c #616694",
")  c #616F9E",
"_  c #626FA0",
"`  c #6576AC",
"'  c #6579AF",
"]  c #657BB2",
"[  c #9A1F94",
"{  c #A70E94",
"}  c #A11594",
"|  c #8F2C94",
" . c #BD07AB",
".. c #BC0AA9",
"X. c #C113BE",
"o. c #BE39E4",
"O. c #D616DE",
"+. c #C922DA",
"@. c #E607E4",
"#. c #FC05FF",
"$. c #EC13FA",
"%. c #F113FF",
"&. c #DF25FB",
"*. c #CE3DFE",
"=. c #D03EFF",
"-. c #E324FF",
";. c #8C79E5",
":. c #6883BF",
">. c #6986C3",
",. c #6B8CCD",
"<. c #748FDD",
"1. c #6B90D2",
"2. c #6E94DA",
"3. c #6F9CE4",
"4. c #709CE5",
"5. c #71A0ED",
"6. c #73A5F5",
"7. c #75A7FA",
"8. c #7CA6FF",
"9. c #75ADFE",
"0. c #7DA9FF",
"q. c #77B1FF",
"w. c #9486FE",
"e. c #9588FF",
"r. c #8297FA",
"t. c #839BFE",
/* pixels */
"                                                                                                                                ",
"                                                                                                                                ",
"                                                                                                                                ",
"                                                                                                                                ",
"                                                                                                                                ",
"                                  + + + + + + + + + + + + + + + + + + + + + + + + + + +                                         ",
"                                + + + + + + + + + + + + + + + + + + + + + + + + + + + +                                         ",
"                          + + + + + + + + + + + + + + + + + + + + + + + + + + + + + + + + + + + + +                             ",
"                          + + + + + + + + + + + + + + + + + + + + + + + + + + + + + + + + + + + + +                             ",
"                    + + + + + + + + + + + + + + + + + + + + + + + + + + + + + + + + + + + + + + + + + + +                       ",
"                    + + + + + + + + + + + + + + + + + + + + + + + + + + + + + + + + + + + + + + + + + + +                       ",
"              + + + + + + + + + + + + + + + + + + + + + + + + + + + + + + + + + + + + + + + + + + + + + + + + +                 ",
"              + + + + + + + + + + + + + + + + + + + + + + + + + + + + + + + + + + + + + + + + + + + + + + + + +                 ",
"              + + + + + + + + + + + + + + + + + + + + + + + + + + + + + + + O + + + + + O + + + + + + + + + + +                 ",
"          + + + + + + + + + + + + + + + + + + + + + + + + + + + + + + + + & N B c o + $ v B n % O + + + + + + +                 ",
"        + + + + + + + + + + + + + + + + + + + + + + + + + + + + + + + + + ; E Q P % + & Y Q R - O + + + + + + +                 ",
"        + + + + + + + + + + + + + + + + + + + + + + + + + + + + + O - A S H W W P $ O & Y Q T = O O + + + +                     ",
"        + + + + + + + + + + + + + + + + + + + + + + + + + + + + O O 8 W Q W W W I = o = Y W T ; $ o + + +                       ",
"        + + + + + + + + + + + + + + + + + + + + + O O O + + + + + O z W W W W W E L K L E W W L K J - O +                       ",
"        + + + + + + + + + + + + + + + + + + $ & * * * * % + + + + O n W W W W W W W Q Q W W W W Q E 6 O +                       ",
"        + + + + + + + + + + + + + + + + + O n Y Y Y Y Y H O O O + O N W W W W W W W W W W W W W W R 5 O O                       ",
"        + + + + + + + + + + + + + + + + + + V Q W W W W W     5 + O B W W W W W W W W W W W W W W R ; O +                       ",
"        + + + + + + + + + + + + + + + + + O V Q Q W W W W W W Y   O m W W W W W W             W W R 6 O O                       ",
"        + + + + + + + + + + + + + + + + + + k S A L W W W W W J + O 8 W W W W W W             W W W G c M                       ",
"        + + + + + + + + + + + + + + + + + + + + + b Q Q W W Q D O O 7 W W W W W W W W W W W W W W W W W W 8 O +                 ",
"        + + + + + + + + + + + + + + + + + + + + O 6 N N F W Q P B N S W W W W W W W W W W W W W W W W W W 8 O +                 ",
"        + + + + + + + + + + + + + + + + + + + + + O + O m W W W W Q W W W W W W W W W W W W W W W W W W E 7 O +                 ",
"              + + + + + + + + + + + + + + + + + + + + O & k l V W W W W W W W W W W W W W W W             * O +                 ",
"              + + + + + + + + + + + + + + + + + + + + + + O O l W W W W W W W W W W W W W W W             + + +                 ",
"              + + +       + + + + + + + + + + + + + + + + O O l W W W W W W W W Q W W Q Q W Q W W W 7 O +                       ",
"              + + +       + + + + + + + + + + + + + + + o * & c W W W U U U U U U U U U U U U U U U 6 O +                       ",
"                                + + +       + + + + + O z U U T W W J * & & & & & & & & & & & & & &                             ",
"                                + + +         + + + + O c Q W W W W H @ + + O O O O O O O O + O O O                             ",
"                                                    + O c Q Q W Q Q H @ + +                                                     ",
"                                                    + O 7 S S A S S n @ + +                                                     ",
"                                                    + + + + + + + + + + + +                                                     ",
"                                              +   + + + t ^ ^ d + + + + + + + +                                                 ",
"                                            + + + + + + g 9.q.] + + + + + + + @ +                                               ",
"                                        + . h ] ` d + . g 9.9.4.] ] ' ' ' ' ] ] ) 2 + +                                         ",
"                                      + + . ( 0.0.( . . g 9.9.9.7.7.7.8.8.8.8.0.<.2 + +                                         ",
"                                      + + + [ -.-.[ X . g 7.9.>.r r a &.-.-.-.-.+.> . .                                         ",
"                                      + + + } %.%.} X . g 9.q.] + X 0 $.%.%.$.%.O.w 3 4                                         ",
"                                      + + . ! t.t.! . . g q.q.] X . p r.t.t.r.8.8.3.3.1.3 + +                                   ",
"                                      + + X ~ e.w.~ . . s ,.,.^ + . i w.e.e.;.w.w.e.e.;.4 + +                                   ",
"                                      + + X { #.#.{ + + : : : + O X q #.#.#.#.#.#.#.#.@., . +                                   ",
"                                      + + X | =.*.| + + = x x k k k C ......*.*.*.*.*.o.< + +                                   ",
"                                      + + . ( 9.9.( . O M W W W W Q H o @ r 6.9.7.9.9.4.4 + +                                   ",
"                                      + + X ( q.9./ . O M W W W W W H X + p 6.9.9.9.9.4.3 + +                                   ",
"                                      + + + ( 9.q.( + O c W W W W Q H X + y 6.9.9.9.9.4.3 + +                                   ",
"                                      + + X ( q.9.2.` ] j k l k z k 9 ` ` :.9.9.4.g d d                                         ",
"                                      + + + ^ 6.6.7.9.q.` : : : : : d 7.9.9.6.6.1.: X .                                         ",
"                                            e u r _ q.9.5.,.,.,.,.,.2.9.9.2.p u u                                               ",
"                                            X + X g 4.4.4.4.4.4.4.4.4.3.4.] : + +                                               ",
"                                            + + + : 3 3 3 2 3 3 3 3 3 3 3 2 o + +                                               ",
"                                              + + + + + + + + . + . + X + + + + +                                               ",
"                                                    + + + + + + + + + + + +                                                     ",
"                                                    + + + + + + + + + + + +                                                     ",
"                                                    + + + + + + + + + + + + + + +                                               ",
"                                                    +                         +                                                 ",
"                                                                                                                                ",
"                                                                                                                                ",
"                                                                                                                                ",
"                                                                                                                                ",
"                                                                                                                                "
};
