/* XPM */
static char *b7745747656c4501e60668ecfa841f25Z18PJyHuMmCBewaq[] = {
/* columns rows colors chars-per-pixel */
"64 64 189 2 ",
"   c None",
".  c #1C2D0A",
"X  c #142D07",
"o  c #043303",
"O  c #083306",
"+  c #063B05",
"@  c #093B07",
"#  c #093608",
"$  c #0C3C09",
"%  c #143609",
"&  c #1D390E",
"*  c #123D10",
"=  c #27270D",
"-  c #232C0D",
";  c #2B280F",
":  c #20310D",
">  c #28340E",
",  c #2D2D11",
"<  c #302010",
"1  c #342C12",
"2  c #3A2D14",
"3  c #3E2214",
"4  c #2D3114",
"5  c #303911",
"6  c #34361B",
"7  c #363213",
"8  c #383E23",
"9  c #4E1E19",
"0  c #4A1C16",
"q  c #541D1A",
"w  c #5C1E1C",
"e  c #541C17",
"r  c #601F1E",
"t  c #462114",
"y  c #4C2419",
"u  c #4C2C19",
"i  c #452818",
"p  c #54201B",
"a  c #5B221D",
"s  c #542B1B",
"d  c #5B2A1D",
"f  c #54341D",
"g  c #63221F",
"h  c #612A1F",
"j  c #681F20",
"k  c #5A2D27",
"l  c #572E28",
"z  c #5D2B28",
"x  c #592824",
"c  c #5D342D",
"v  c #5A3830",
"b  c #652220",
"n  c #6C2422",
"m  c #662A21",
"M  c #6C2A22",
"N  c #612D2A",
"B  c #682D2B",
"V  c #762527",
"C  c #7A2627",
"Z  c #732924",
"A  c #7C2926",
"S  c #772728",
"D  c #7C2728",
"F  c #7E2A29",
"G  c #732F2F",
"H  c #63312E",
"J  c #74312E",
"K  c #7C312E",
"L  c #7F2F30",
"P  c #623531",
"I  c #6A3533",
"U  c #693B36",
"Y  c #723433",
"T  c #7E3231",
"R  c #0A4007",
"E  c #0B4209",
"W  c #114111",
"Q  c #1A4B19",
"!  c #1A4116",
"~  c #22461F",
"^  c #204C1F",
"/  c #284A24",
"(  c #2D4B2A",
")  c #354729",
"_  c #2C5526",
"`  c #305C2F",
"'  c #394E34",
"]  c #3A5D37",
"[  c #3C5C39",
"{  c #3E633B",
"}  c #3A6136",
"|  c #40603D",
" . c #4A5D46",
".. c #4A6446",
"X. c #526B4D",
"o. c #566D51",
"O. c #576551",
"+. c #5A7155",
"@. c #62755C",
"#. c #687B64",
"$. c #677963",
"%. c #717E6B",
"&. c #812927",
"*. c #802728",
"=. c #822929",
"-. c #8A2C2B",
";. c #84302B",
":. c #843433",
">. c #883535",
",. c #873836",
"<. c #883938",
"1. c #8A3937",
"2. c #6F816B",
"3. c #74816C",
"4. c #7B8B75",
"5. c #838B7C",
"6. c #888C7F",
"7. c #8B867A",
"8. c #888F81",
"9. c #869080",
"0. c #8B9284",
"q. c #8E9488",
"w. c #939A8C",
"e. c #95968C",
"r. c #999690",
"t. c #A49B95",
"y. c #A89B97",
"u. c #AD9F9C",
"i. c #9DA295",
"p. c #A2A39C",
"a. c #AEA19E",
"s. c #A3A59A",
"d. c #B0A19F",
"f. c #AFA6A2",
"g. c #ACACA4",
"h. c #AEACA8",
"j. c #B3A5A3",
"k. c #B5AAA6",
"l. c #B5ACAA",
"z. c #BAADAC",
"x. c #AFB4A8",
"c. c #B4B2AD",
"v. c #BCB2AF",
"b. c #BEB3B1",
"n. c #BEB9B4",
"m. c #BEBEB9",
"M. c #C2B6B5",
"N. c #C3B9B7",
"B. c #C6B7B8",
"V. c #C5BBBA",
"C. c #C9BDBD",
"Z. c #C6C1BD",
"A. c #CAC0BF",
"S. c #CDBFC1",
"D. c #C7C3C0",
"F. c #CBC2C1",
"G. c #CCC2C1",
"H. c #CDC3C3",
"J. c #CDC8C6",
"K. c #D1C6C6",
"L. c #D1C5C6",
"P. c #D3C6C8",
"I. c #D3C7C8",
"U. c #D5CACB",
"Y. c #D6CBCC",
"T. c #D5CBCC",
"R. c #D7CCCD",
"E. c #D6CDCE",
"W. c #D5CBCC",
"Q. c #D8CDCF",
"!. c #D9CECF",
"~. c #D8CDCD",
"^. c #D8CDCF",
"/. c #D6D0CE",
"(. c #D9D0CF",
"). c #D7CFD0",
"_. c #D9CFD0",
"`. c #D9CED0",
"'. c #DACFD0",
"]. c #D9CFD0",
"[. c #DAD0D1",
"{. c #DBD0D1",
"}. c #DBD1D2",
"|. c #DBD2D3",
" X c #D9D0D0",
".X c #DCD2D3",
"XX c #DCD3D4",
"oX c #DDD4D5",
"OX c #DBD2D3",
/* pixels */
"                                                    9                                                                           ",
"    R.R.T.I.L.L.I.W.T.!.|.!.I.N.  b C C D =.=.=.=.=.F C C C b e   `.oX.X|.|.|.R./.V.L.T.T.Y.M.    F F =.*.F =.=.=.=.=.D C C n   ",
"  (.oX|.|.|.|.|.oX|..X|.|.R.I.C.c D *.*.F F C D C C D F D *.V q M..X`.`.`.!.`..X|.).R.oX.X|.m.    M -.C C C F C C C C D F F V a ",
"  T.!.|.!.|.`.|.|.!.!.|.!.|.I.A.P V D S V V V V V V V V V V V w b.`.`.|.|.|.`.`.R.|.|.`.!.R.c.      Z Z V V V C C V S V V V n q ",
"  L.`.!.`.`.`.`.|.`.!.|.`.|.R.F.P n V S V V V V V V S V V V n w l.Z.R.R.!.`.|.!.`.|.R.R.`.`.G.        i M C V V S V V V C V V q ",
"  H.|.`.!.|.!.!.R.`.!.`.`.`.|.G.c j b n V V C C V C V V V V V 9   i.R.|.!.`.`.!.!.!.`.|.|.`.Y.    b 7 , n C V V V V S S V V Z a ",
"  I..X`.!.|.!.|.|.!.!.!.`.!.!.F.P V =.*.A V D C V V V V V V x <   g.R./.`.!.`.|.`.|.|.`.!.`.Y.l.g A V b V V V V D V V V V V n w ",
"  Y.|.!.`.`.!.`.`.!.|.`.`.|.`.C.c V D V V V V V V V S V V V r     i.R.|.`.!.|.R.R.|.R.R.|.`.Y.l.M D V V V V V C V V V V V V b q ",
"  Y.|.`.`.`.`.`.`.|.R.`.|.!.!.S.P V C V V V V V V V V V V V s   o +.oX.X!.`.`.R.|.|.R.|.`.`.Y.l.j D D V V V D V V D V V V V j q ",
"  Y.`.`.`.).|.`.`.R.|.`.R.|.).C.v V C V V V V V V V C V V V a   O { w.V.|.`.`.|.R.`.`.R.`.`.Q.z.V D V V V V V V V V V V S V b 9 ",
"  R.R.Y.|.R.`.`.|.R.`.!.`.!.n.s.  M C V V V V j V V V C V Z n q o.Q #.H.|.!.|.`.`.R.|.!.`.`.`.b.n D V S V V V V D V V V V C n q ",
"  R.!.R.|.Y.I.`.R.|.|.!.`.|.F.    m V V V V V V V V V M M V V e n.w.h.|.R.|.R.`.|.|.`.!.`.`.`.b.n D V D V V V V V V V b V Z n p ",
"  R.`.`.`.Y.Y.`.`.!.`.`.`.|.J.5.  C C V V V V V V V Z g V V Z q N..XR.`.|.!.!.`.R.|.|.!.`.`.!.b.n D V V V V V V C C Z Z M Z Z p ",
"  R.`.|.`.`.`.T.!.!.|.`.|.R.G.6.    M C V V V V V V d M V V j e M.|.`.|.`.`.|.`.`.R.`.`.!.|.!.z.w V V V V V V D V Z g h d       ",
"  L.Y.!.`.Y.R.Z.I.R.Y.Y.R.W.c.} + . 2 h V V Z Z C g h V V V b e M.R.!.`.R.`.`.`.!.R.!.!.R.`.T.n.9 r j j b n b b n s > % 5 u     ",
"  M.M.M.N.N.N.k.v.M.M.n.M.v.` E + O R X 3 w w w   w r w r w w     B.B.C.C.V.V.C.V.C.C.V.B.V.B.                      @ @ E       ",
"  M >.:.:.:.:.K F T T T G b . @ # ( $... .t.u.a.l.f.u.u.u.u.u.      P B P P I I I I I P H P       V.F.n.C.V.N.M.M.j.#.@.9.V.M.  ",
"  V =.*.=.&.&.&.=.=.=.=.=.=.m = ' w.T.T.F.T.`.).R.R.Q.!.`.!.S.n.  b C C C *.*.=.=.*.*.A C C V x K.}.R.D.|.T.I.I.!.!.R.J.J.`.S.  ",
"  A C V V V C V V V V V C C V b y.T.).`.`.|.`.`.|.R.|.R.`.|.I.M.p A =.*.*.A *.D A C C D A &.V z !.Q.V.C.R.|.`.|.`.!.!.|.`.`.T.n.",
"  C C V V V V V V V V V C V V j b.oX`.|.`.`.`.`.`.`.!.|.`.`.Y.N.9 V C V V V V V V C V V V C Z z R.I.B.C.!.|.!.`.`.|.`.`.|.!.I.M.",
"  Z C C V V V V V V V V V S S j z.oX`.R.I.Y.`.|.`.|.R.`.|.`.Y.N.  Z V V V V V V V V V V V V j   /.Y.M.C.'.'.!.!.!.|.!.!.!.`.T.M.",
"  Z C V V V V V V V V V V V V j z.oX`.T.C.R.`.`.R.|.|.R.!.`.Y.B.  M V V V D V V C C Z V V C M   Y.|.C.G.`.`.|.`.!.`.`.|.!.`.T.n.",
"  n C V D V V V V V V V S V S j z.oX`.R.T.!.`.`.`.`.R.|.!.`.I.M.  n D V V V V V C C A C D *.V z W.oXT.Y.'.`.|.`.`.|.`.`.!.!.I.M.",
"  n C C V V V V Z M V V S V S b k.oX!.`.!.|.R.|.!.|.`.R.|.`.T.M.  b D V V V C V V V V V V S j b I.oX!.|.`.`.!.`.!.!.!.!.|.!.T.v.",
"  b C V V V C Z h C V V V V V b k.oXI.Y.|.!.!.|.!.|.R.`.!.!.T.M.  n D C V V V V V V S S V V j B T..X`.`.!.|.!.!.`.`.`.`.`.|.L.n.",
"  g Z Z V V Z g A V V V V V S j k.oXQ.Q.`.`.`.`.!.`.!.|.|.`.T.M.  b D V V V V V S V V V V S j z L..X|.`.!.`.`.|.R.|.!.|.|.R.I.v.",
"  g A C V M h V V V V V V V V b j.oX!.`.!.!.!.|.R.|.!.`.`.`.I.n.  b F V S V V V S V V V V V V z I.oX!.!.`.`.!.`.`.!.`.`.`.!.I.v.",
"  a A C M d V V V V V V C V V b j.oX`.`.|.`.!.`.|.`.R.|.`.!.T.M.  g D C V V V V V V V V D V V N H.J.J.!.!.|.!.|.|.!.I.H.Q.!.L.M.",
"  n ;.Z s Z V V V D V V V V V w j.oX).`.`.|.`.`.R.!.`.`.`.|.R.N.  b F V V V V V V V S V Z Z Z   3.+.Z.(.'.`.`.`.Q.I.Y.G.I.'.T.M.",
"  Z   d M A V V V V V V V V V q j.oX|.`.`.R.`.Q.T.R.).|.|.R.|.V.  j F S S D D V V V C V Z C V   Q { H.(.'.'.!.`.Y.T.Y.Y.'.'.T.M.",
"      h M n V V V V V V V V r 9 y.L.!.`.|.'.'.'.`.'.`.).R.!.I.N.  x C V G G V b n n n m Z Z M ; @ | A.L.L.C.C.G.L.L.A.J.Y.T.L.  ",
"      q e e e e e q e e 0 0       r.n.l.0.0.8.0.8.0.l.V.V.V.N.          8 8 - . . . - X . : X O O *                             ",
"                        @.              6 6 4 4 4 4 i                   [ _ / ~ # ! / Q * @ O o @ @ O                           ",
"    (.(.R.W.I.I.T.!.!.!.|..XZ.        >.>.>.>.>.<.:.,.T T T G k   L.T.T.J.V.m.c.2.5.b.c.o...O.( + E & M *.D =.=.=.=.*.D C C n   ",
"  |..X`.|..X|.XX.X.X|.|.`.!.L.n.v n *.D L L L S T L T :.:.;.:.B b.|.`.R.).).].}.|.J.T.T.p.V.F.  ; , d V V *.*.D F C C D F =.C p ",
"  T.|.`.(.(.`.!.`.!.`.`.!.!.Y.G.  =.D V S V V V S S C V V V n w z.|.!.`.}.`.].].R.|.|.R.R.|.T.  g m b V V D V V V C S V V C n q ",
"  L.`.!.`.|.R.!.`.!.`.|.!.`.`.A.  =.C V D V V V S V V S V V b q z.R.!.|.).|.).`.!.!.`.`.`.`.L.f.n A V V V V V D D V V V V V V w ",
"  L.`.`.R.|.`.|.|.!.!.!.!.|.|.C.  F C V V V V V S S V V V V b 9 a.T.`.`.`.`.`.`.|.`.|.R.`.`.Y.l.b A V D V V V V V V V V S V V q ",
"  T..X`.!.`.R.|.`.`.`.`.`.`.!.G.  =.F V V V V V V V V V V V     7.G.|.`.R.|.|.).|.R.`.`.`.`.Y.l.M C V V V V V V V V V V S S n w ",
"  T.|.`.!.|.`.R.|.!.!.|.`.`.'.A.  F F V V V V D V V V V C M 1 # _ C.!.D.`.`.`.`.R.|.`.`.).|.Y.l.n A V V D V V V V V D V V S n p ",
"  Y.`.`.|.`.`.|.!.`.`.!.`.|.`.A.  F D C V V V V V V V V V V 1 # + o.4.q.R.|.R.|.`.`.|.R.`.`.Y.l.V D V V V D V V V V V V V V j q ",
"  R.|.`.!.!.!.!.!.|.|.!.`.R.`.A.  ;.A V C V V V V V V D V V s $ W ] Q #.R.`.|.R.`.`.R.|.|.`.R.z.j D V V V V V V V V V V D V j q ",
"  Y.R.Y.|.`.`.`.`.`.`.!.|.`.!.C.  -.C C V V V V V V V V V V V 0   J.s.p.R.).R.|.|.`.`.|.`.`.).z.j *.V V V V V V V V V V S S j p ",
"  !.`.`.!.Y.L.!.!.!.|.!.!.!.R.B.  -.C Z V V V V V V V V V V V w n.oX}.}.`.R.|.`.R.R.|.R.`.`.`.b.V D V V V V V D V V V V S D j q ",
"  Z.h.D.`.Y.Y.'.!.!.`.|.`.`.J.b.  *.V V V V V D V C V V V V V g N.|.`.`.|.`.|.R.|.!.!.`.`.`.!.b.j D V V V V V V V V V V S V V w ",
"  $.o.V.|.!.`.F.T.!.`.`.|.`.J.b.U V V V V S V V V V V V V V V w M.`.`.`.`.`.`.`.`.!.|.`.R.|.R.v.j D S V V V V V V V V V V V V q ",
"  ] Q q.`.R.!.0.n.Q.Q.Q.T.T.R.V.H b j V V V V V C V V V V V V w b.R.!.`.R.`.`.`.R.!.!.R.R.!.C.    M V V V V V V V V S S S S j   ",
"    R ..M.B.C.5.e.C.B.V.V.V.B.    q q w w w w w w w w r w w w     B.M.N.N.M.B.B.B.B.N.B.B.N.k.      q w w w w r r j r w w r w   ",
"              k k H z c k l l       z.  v.z.z.z.z.z.b.N.N.z.      J <.<.>.>.>.>.,.,.,.T T J         z.j.j.k.j.d.d.u.a.a.d.a.    ",
"  y A f $ i =.=.=.=.=.F V C Z w M.Y.'.H.R.Y.G.G.L.Q.].].`.Y.S.M.  *.=.D F *.*.=.F F =.=.=.=.Z     R.|.R..X|.`.!.Y.!.R.`.`.!.C.v.",
"  M F Z 2 x D D C C C D A *.A r M.XXS.C.R.|.|.|.XX}.`.`.`.|.Y.V.x *.V V V V V V V V V V V V x   c.|.`.`.R.`.|.`.`.|.`.R.!.(.I.M.",
"  b F Z V V V S V V V V V V V w M.Q.B.B.R.|.R.`.`.`.`.`.`.`.).V.w A C V V V V V V V V V V C b c F.|.|.`.|.`.R.!.`.`.`.|.|.!.I.v.",
"  b C C V V V V V V V C V V r w A.!.M.V.T.|.!.!.`.`.`.`.|.R.R.V.p C V V C V V C V V V V V V V Y I.|.`.R.L.!.!.!.!.!.!.!.!.`.T.v.",
"  n C C V V S V C C V C Z Z Z p B..XC.C.R.`.`.|.`.|.!.!.R.|.).N.q V C C V V V V V V V V V V V Y J.|.`.L.H.`.|.`.`.|.`.|.!.`.I.v.",
"  b C V C V V V C C C C *.C C w M..XI.T.!.`.!.`.`.R.`.|.`.`.R.V.  Z Z C V V V V V M V V V V V Y L..X`.Y.Y.`.|.`.`.|.'.`.(.(.I.M.",
"  g A V V V V C V V V V V V Z w b.oX!.!.|.`.!.|.`.|.|.R.|.R.R.v.  s Z Z V C V V M Z V V V V V Y J..X!.`.`.`.`.`.!.!.(.(.(.(.I.v.",
"    C D V V C V V V V V V V V w M..X!.!.`.`.`.`.!.!.R.|.`.`.J.%.+ & d S V C V M V V V V V V V Y J.|.L.R.`.!.`.`.`.`.`.`.|.R.I.n.",
"    C V C V V V V V V V C V V w M.XX!.!.!.|.!.!.`.|.`.`.`.`.T.0.+ % s Z V V m M V V V V V V V Y S.XXR.R.`.!.|.!.!.|.!.!.R.|.L.v.",
"    D V S V V V V V V C V C V r M..X!..X!.!.!.|.|.R.!.`.|.!.Y.      M C V m M V V V V C V V V Y G..X!.!.|.R.|.!.!.|.!.|.!.(.I.v.",
"  x C C S V V V V V V V V V V r M.oX!.!.`.|.`.`.|.`.Y.I.!.`.Y.n.  b ;.C d M C V V V V V C V V I L.XX|.`.R.|.`.!.!.`.!.`.(.!.L.M.",
"  a *.V V V V V V V V V M A C   C..X!.(.`.`.'.!.R.Y.T.S.I.!.R.N.  C K d d F V V V V V V V V V I C.oX!.(.(.!.`.!.!.`.|.R.!.|.T.M.",
"  w D C V V V V V V V V h &.C g M..X(.!.'.'.'.'.Y.I.`.I.R.|.R.B.    u s Z Z C V V C C V V V j B C.oX.X!.!.|.|.T.Y.`.R.|.(.`.Y.M.",
"  a V V V V n V n V V n Z Z g g z.T.Y.I.T.L.S.L.I.Y.H.S./.R.W.N.    p a a g g b b b b b b j w P C.!.!.!./.R.R.R.Y.R.R.R.R.R.L.M.",
"                                  M.M.M.M.M.z.M.M.M.b.s.V.V.M.                                    M.N.N.N.N.V.V.V.N.V.N.N.N.M.  "
};
